<svg width="27" height="27" viewBox="0 0 27 27" fill="none" xmlns="http://www.w3.org/2000/svg">
<path d="M9.6825 8.53048L17.39 7.72038C19.4852 7.50017 20.5327 7.39007 21.3381 7.81379C21.6868 7.99723 21.9959 8.24755 22.2478 8.55044C22.8297 9.25012 22.9399 10.2977 23.1601 12.3928C23.5271 15.8848 23.7106 17.6307 23.0043 18.9731C22.6987 19.5541 22.2815 20.0693 21.7767 20.4891C20.6105 21.459 18.8646 21.6425 15.3726 22.0095L14.1295 22.1402C9.44124 22.633 7.09713 22.8793 5.48761 21.5759C3.87809 20.2726 3.63171 17.9284 3.13896 13.2403L2.81955 10.2013C2.62968 8.39475 2.53474 7.49149 2.84174 6.77397C3.06058 6.2625 3.41733 5.82195 3.87212 5.50155C4.51014 5.05208 5.4134 4.95714 7.21992 4.76727C8.37729 4.64563 8.95599 4.5848 9.48252 4.72152C10.6847 5.03368 11.2721 6.03423 11.9037 7.02317L12.6661 8.21689" fill="url(#paint0_linear_10_9080)"/>
<path d="M16.6699 12.8232L17.6677 13.5156C18.0871 13.8066 18.2968 13.9522 18.3185 14.1581C18.3401 14.3641 18.1652 14.5501 17.8155 14.922L16.9835 15.8067" stroke="white" stroke-width="1.5" stroke-linecap="round" stroke-linejoin="round"/>
<path d="M9.70858 13.555L8.87659 14.4397C8.52683 14.8116 8.35194 14.9976 8.37359 15.2036C8.39524 15.4096 8.60496 15.5551 9.02441 15.8462L10.0222 16.5386" stroke="white" stroke-width="1.5" stroke-linecap="round" stroke-linejoin="round"/>
<path d="M14.0789 12.0887L12.6125 17.2704" stroke="white" stroke-width="1.5" stroke-linecap="round" stroke-linejoin="round"/>
<defs>
<linearGradient id="paint0_linear_10_9080" x1="12.248" y1="4.2388" x2="14.1295" y2="22.1402" gradientUnits="userSpaceOnUse">
<stop stop-color="#2BB6FF"/>
<stop offset="1" stop-color="#00A5FB"/>
</linearGradient>
</defs>
</svg>
