<svg width="43" height="11" viewBox="0 0 43 11" fill="none" xmlns="http://www.w3.org/2000/svg">
<g opacity="0.2">
<path d="M15.4267 3.41391C15.3817 3.54825 15.2558 3.63878 15.1141 3.63878C14.8867 3.63878 14.7275 3.41404 14.803 3.19953L15.7943 0.382747C15.875 0.153424 16.0916 0 16.3347 0C16.5777 0 16.7942 0.153251 16.875 0.382389L17.8685 3.19947C17.9441 3.41395 17.785 3.63878 17.5576 3.63878C17.416 3.63878 17.2903 3.54842 17.2451 3.41426L16.3529 0.762953C16.3503 0.755084 16.3429 0.749783 16.3346 0.749783C16.3263 0.749783 16.3189 0.755092 16.3162 0.762969L15.4267 3.41391ZM15.3734 2.48603C15.3734 2.34033 15.4915 2.22222 15.6372 2.22222H17.0264C17.1721 2.22222 17.2902 2.34033 17.2902 2.48603C17.2902 2.63173 17.1721 2.74984 17.0264 2.74984H15.6372C15.4915 2.74984 15.3734 2.63173 15.3734 2.48603ZM18.7943 3.63878C18.6171 3.63878 18.4734 3.49513 18.4734 3.31794V1.22776C18.4734 1.05592 18.6127 0.916612 18.7846 0.916612H18.8736C18.9963 0.916612 19.0957 1.01608 19.0957 1.13878V1.34303C19.0957 1.35292 19.1038 1.36095 19.1137 1.36095C19.1212 1.36095 19.1279 1.3562 19.1306 1.34913C19.181 1.21422 19.263 1.08086 19.3818 0.999892C19.504 0.916558 19.6429 0.861003 19.7984 0.861003C19.8285 0.861003 19.8606 0.860927 19.8961 0.876964C19.9109 0.883616 19.9303 0.888672 19.9464 0.888672C19.9941 0.888672 20.029 0.927321 20.029 0.974998V1.36139C20.029 1.42257 19.9871 1.4766 19.9292 1.45659C19.9143 1.45142 19.8902 1.44423 19.8744 1.44423C19.8248 1.44423 19.7773 1.44423 19.7319 1.44423C19.6124 1.44423 19.5068 1.47222 19.4151 1.52778C19.3235 1.58333 19.2485 1.63867 19.1957 1.72201C19.1429 1.80534 19.1151 1.91661 19.1151 2.02772V3.31794C19.1151 3.49514 18.9715 3.63878 18.7943 3.63878ZM20.7999 3.63878C20.6258 3.63878 20.4846 3.49762 20.4846 3.3235V0.320842C20.4846 0.143646 20.6283 0 20.8055 0C20.9827 0 21.1263 0.143646 21.1263 0.320841V1.34328C21.1263 1.35304 21.1342 1.36095 21.144 1.36095C21.1502 1.36095 21.1559 1.35771 21.1591 1.35238C21.1871 1.30536 21.2241 1.2412 21.2685 1.17443C21.2844 1.15056 21.3035 1.12903 21.3246 1.10956C21.3495 1.08653 21.3773 1.061 21.4079 1.03569C21.4903 0.967444 21.5917 0.927222 21.6972 0.909087C21.7675 0.896998 21.8464 0.888672 21.9345 0.888672C22.1429 0.888672 22.3346 0.91645 22.5041 1.02756C22.6735 1.13867 22.8095 1.30539 22.9068 1.49984C23.0095 1.72206 23.0596 1.97201 23.0596 2.27756C23.0596 2.58312 23.0095 2.83333 22.9123 3.05556C22.8123 3.25 22.6791 3.41645 22.5096 3.52756C22.3402 3.63867 22.1484 3.69439 21.9345 3.69439C21.779 3.69439 21.6485 3.66667 21.5457 3.61111C21.4429 3.55556 21.3595 3.49995 21.2984 3.41661C21.2417 3.33923 21.1945 3.28575 21.1614 3.23402C21.1567 3.2267 21.1486 3.22211 21.1399 3.22211C21.1263 3.22211 21.1152 3.2332 21.1152 3.24688V3.43045C21.1152 3.54551 21.0219 3.63878 20.9068 3.63878H20.7999ZM21.1152 2.27756C21.1152 2.44423 21.1402 2.61095 21.1902 2.74984C21.191 2.7516 21.1918 2.75337 21.1926 2.75514C21.2952 2.97994 21.5098 3.1665 21.7569 3.1665C22.0077 3.1665 22.2335 2.98144 22.3205 2.74612C22.3234 2.73823 22.3262 2.73025 22.329 2.72217C22.379 2.61106 22.404 2.44423 22.404 2.27756C22.404 2.11089 22.379 1.94434 22.3318 1.83322C22.2458 1.59419 22.0109 1.41656 21.7569 1.41656C21.5146 1.41656 21.2961 1.57221 21.1937 1.79176C21.1915 1.79636 21.1894 1.80096 21.1873 1.80556C21.1401 1.94444 21.1152 2.11089 21.1152 2.27756ZM24.7957 3.69439C24.5291 3.69439 24.2985 3.63867 24.1013 3.52756C23.9068 3.38867 23.7567 3.22206 23.6484 3.02762C23.5401 2.80539 23.4874 2.55534 23.4874 2.27756C23.4874 1.99978 23.5401 1.74989 23.6484 1.55545C23.7567 1.33322 23.9068 1.16661 24.1013 1.0555C24.2985 0.94439 24.5291 0.888672 24.7957 0.888672C25.0624 0.888672 25.2929 0.94439 25.4873 1.0555C25.6818 1.16661 25.8345 1.33322 25.9401 1.55545C26.0484 1.74989 26.1012 1.99978 26.1012 2.27756C26.1012 2.55534 26.0484 2.80539 25.9401 3.02762C25.8345 3.22206 25.6818 3.38867 25.4873 3.52756C25.2929 3.63867 25.0624 3.69439 24.7957 3.69439ZM24.7984 3.1665C24.9429 3.1665 25.0624 3.13889 25.1596 3.05556C25.2569 2.97222 25.329 2.86106 25.3762 2.72217C25.4262 2.61106 25.4513 2.44423 25.4513 2.27756C25.4513 2.11089 25.4262 1.97211 25.3762 1.83322C25.329 1.69434 25.2569 1.58317 25.1596 1.49984C25.0624 1.4165 24.9429 1.38889 24.7984 1.38889C24.6512 1.38889 24.5262 1.4165 24.429 1.49984C24.3318 1.58317 24.2595 1.69434 24.2095 1.83322C24.1623 1.97211 24.1401 2.11089 24.1401 2.27756C24.1401 2.44423 24.1623 2.61106 24.2095 2.72217C24.2595 2.86106 24.3318 2.97222 24.429 3.05556C24.5262 3.13889 24.6512 3.1665 24.7984 3.1665ZM26.9693 3.63878C26.7921 3.63878 26.6485 3.49513 26.6485 3.31794V1.22769C26.6485 1.05589 26.7878 0.916612 26.9596 0.916612H27.0485C27.1712 0.916612 27.2706 1.01608 27.2706 1.13878V1.34462C27.2706 1.35364 27.278 1.36095 27.287 1.36095C27.2939 1.36095 27.3 1.35663 27.3024 1.35018C27.3529 1.21492 27.4376 1.08107 27.554 0.999892C27.6762 0.916558 27.8151 0.861003 27.9706 0.861003C28.0001 0.861003 28.0332 0.860931 28.067 0.875909C28.0828 0.882906 28.1029 0.888672 28.1202 0.888672C28.1685 0.888672 28.2041 0.927826 28.2041 0.976125V1.36217C28.2041 1.42292 28.1616 1.47695 28.1043 1.45694C28.0888 1.45156 28.065 1.44423 28.0486 1.44423C27.9993 1.44423 27.9517 1.44423 27.9041 1.44423C27.7874 1.44423 27.6818 1.47222 27.5873 1.52778C27.4957 1.58333 27.4235 1.63867 27.3707 1.72201C27.318 1.80534 27.2902 1.91661 27.2902 2.02772V3.31794C27.2902 3.49514 27.1465 3.63878 26.9693 3.63878Z" fill="black"/>
<path d="M0.863919 9.75065C0.38679 9.75065 0 9.36386 0 8.88673V7.77142C0 7.29968 0.382417 6.91726 0.854153 6.91726H1.55545C1.63987 6.91726 1.70831 6.9857 1.70831 7.07012C1.70831 7.15454 1.63987 7.22298 1.55545 7.22298H0.827772C0.5593 7.22298 0.341661 7.44062 0.341661 7.70909C0.341661 7.97756 0.5593 8.1952 0.827772 8.1952H1.48058C1.55728 8.1952 1.61947 8.25739 1.61947 8.33409C1.61947 8.4108 1.55728 8.47298 1.48058 8.47298H0.827772C0.5593 8.47298 0.341661 8.69062 0.341661 8.95909C0.341661 9.22756 0.559301 9.4452 0.827772 9.4452H1.57511C1.65946 9.4452 1.72784 9.51358 1.72784 9.59793C1.72784 9.68227 1.65946 9.75065 1.57511 9.75065H0.863919ZM2.90554 9.80626C2.76943 9.80626 2.64726 9.77854 2.53893 9.72298C2.42782 9.66743 2.34172 9.61165 2.27783 9.50054C2.21394 9.41721 2.18058 9.27837 2.18058 9.13949C2.18058 9.07721 2.18842 9.01494 2.20361 8.96244C2.2245 8.89033 2.26793 8.82628 2.31916 8.7714C2.39289 8.69241 2.49613 8.64876 2.59934 8.61679C2.63468 8.60584 2.67107 8.59489 2.70833 8.58393C2.76693 8.56765 2.82457 8.55136 2.88182 8.54066C2.9614 8.52578 3.04252 8.51782 3.12299 8.50894C3.12523 8.5087 3.12746 8.50846 3.12968 8.50822C3.25296 8.49531 3.39622 8.52062 3.49447 8.44504C3.53058 8.41726 3.55008 8.38965 3.55008 8.33409V8.30615C3.55008 8.19504 3.51386 8.08404 3.43886 8.00071C3.36386 7.91737 3.25276 7.88949 3.10276 7.88949C2.95825 7.88949 2.84256 7.91355 2.75559 7.98377C2.74224 7.99455 2.72874 8.00519 2.71488 8.0153C2.68427 8.03762 2.65679 8.06345 2.63274 8.09137C2.57553 8.15778 2.48582 8.1997 2.40337 8.16996C2.31502 8.13809 2.2683 8.03763 2.31794 7.9579C2.3527 7.90207 2.3919 7.85602 2.43592 7.82319C2.45211 7.81111 2.46859 7.79935 2.48417 7.78648C2.57182 7.71406 2.66456 7.66517 2.76666 7.63965C2.87777 7.61187 2.98608 7.61171 3.09163 7.61171C3.24994 7.61171 3.418 7.62422 3.555 7.70353C3.56543 7.70957 3.57581 7.71603 3.58615 7.72293C3.66949 7.77848 3.73893 7.86176 3.79449 7.9451C3.85004 8.05621 3.87777 8.1951 3.87777 8.36176V9.58681C3.87777 9.67729 3.80441 9.75065 3.71392 9.75065H3.68896C3.61226 9.75065 3.55008 9.68847 3.55008 9.61176V9.48414C3.55008 9.47792 3.54503 9.47287 3.53881 9.47287C3.53539 9.47287 3.53216 9.47441 3.53006 9.47711C3.50763 9.50605 3.47259 9.5589 3.42502 9.61176C3.31016 9.73267 3.13805 9.79013 2.97182 9.80357C2.95032 9.8053 2.92822 9.80626 2.90554 9.80626ZM2.95275 9.50054C3.01356 9.50054 3.06956 9.49456 3.12103 9.48537C3.22863 9.46614 3.336 9.41815 3.40598 9.33418C3.46467 9.26376 3.51824 9.18839 3.53796 9.09887C3.54611 9.06186 3.55008 9.01989 3.55008 8.97293V8.77031C3.55008 8.7288 3.52784 8.70959 3.48748 8.71931C3.47379 8.72261 3.45221 8.72714 3.43937 8.73294C3.41756 8.7428 3.39392 8.74831 3.36847 8.75508C3.32233 8.76737 3.27526 8.77843 3.22751 8.77843C3.2231 8.77843 3.21871 8.77843 3.21433 8.77843C3.15552 8.77843 3.09811 8.79658 3.03973 8.8037C3.01988 8.80612 3.00217 8.8061 2.98611 8.8061C2.90278 8.8061 2.8222 8.83393 2.74997 8.86171C2.67775 8.88949 2.61674 8.91737 2.57229 8.97293C2.52785 9.02848 2.50556 9.08409 2.50556 9.16743C2.50556 9.27854 2.54722 9.36171 2.63333 9.41726C2.71666 9.47282 2.82497 9.50054 2.95275 9.50054ZM5.91459 7.96756C5.95571 8.04271 5.90692 8.13099 5.82451 8.15437L5.81414 8.15732C5.74007 8.17833 5.66851 8.12622 5.61551 8.07037C5.60453 8.05881 5.59588 8.04927 5.58602 8.03673C5.5692 8.01534 5.55024 7.99785 5.52891 7.97976C5.48027 7.93852 5.42602 7.90118 5.36264 7.89416C5.32088 7.88953 5.2741 7.88949 5.2223 7.88949C5.09175 7.88949 4.9833 7.91721 4.89719 7.97276C4.81386 8.02832 4.76942 8.11187 4.76942 8.1952C4.76942 8.27854 4.80007 8.33388 4.8584 8.38943C4.91673 8.44499 5.00833 8.47287 5.13333 8.50065L5.45003 8.58393C5.47755 8.59202 5.50407 8.60012 5.52957 8.60838C5.78362 8.69069 6.01386 8.90038 6.01386 9.16743C6.01386 9.27854 5.97778 9.38954 5.90834 9.47287C5.83889 9.58398 5.74173 9.66743 5.61673 9.72298C5.4945 9.77854 5.35004 9.80626 5.18338 9.80626C4.96671 9.80626 4.78888 9.75071 4.64722 9.66737C4.5499 9.59105 4.47753 9.50161 4.42914 9.39907C4.39171 9.31973 4.44499 9.23257 4.52968 9.20969C4.61621 9.18632 4.70173 9.2405 4.75184 9.31481C4.77942 9.35571 4.81309 9.38985 4.85284 9.41726C4.93617 9.47282 5.04448 9.50054 5.17782 9.50054C5.2071 9.50054 5.23516 9.49952 5.26203 9.49749C5.45672 9.48272 5.67505 9.36268 5.67505 9.16743C5.67505 9.15829 5.67437 9.1484 5.673 9.13812C5.65882 9.0316 5.57356 8.95335 5.47429 8.91221C5.40908 8.88519 5.3265 8.88143 5.25781 8.86517L5.00841 8.8061C4.81396 8.75054 4.66951 8.66726 4.58062 8.58393C4.48895 8.47282 4.44444 8.36176 4.44444 8.22287C4.44444 8.14398 4.45519 8.08299 4.47669 8.02466C4.51155 7.93009 4.56896 7.85273 4.6445 7.78601C4.74768 7.69488 4.88896 7.64674 5.02516 7.62676C5.08733 7.61764 5.15306 7.61171 5.2223 7.61171C5.41995 7.61171 5.57616 7.63606 5.69329 7.73034C5.70934 7.74326 5.72538 7.75624 5.74188 7.76858C5.81302 7.8218 5.86997 7.88602 5.91459 7.96756ZM6.71387 10.5563C6.65831 10.5563 6.60837 10.5284 6.5667 10.5284C6.56173 10.5284 6.55693 10.5284 6.5523 10.5283C6.49731 10.5279 6.48402 10.4707 6.49981 10.418C6.53172 10.3116 6.6479 10.2505 6.75901 10.2506C6.76252 10.2506 6.76601 10.2506 6.76948 10.2506C6.82781 10.2506 6.88339 10.2229 6.93061 10.1673C6.97783 10.1118 7.0222 10.0283 7.06109 9.91721C7.10057 9.80972 7.10037 9.69166 7.06054 9.5843L6.42116 7.86114C6.38133 7.7538 6.46073 7.63965 6.57523 7.63965C6.64496 7.63965 6.70711 7.68367 6.73024 7.74945L7.27415 9.29583C7.27635 9.30211 7.28229 9.30632 7.28894 9.30632C7.29561 9.30632 7.30155 9.3021 7.30375 9.29581L7.84455 7.75039C7.86776 7.68406 7.93036 7.63965 8.00063 7.63965C8.116 7.63965 8.19591 7.75481 8.15553 7.86288L7.33615 10.0561C7.29727 10.1672 7.24726 10.2505 7.18614 10.3339C7.08375 10.4802 6.89242 10.5563 6.71387 10.5563ZM9.44729 10.584C9.29174 10.584 9.15564 10.5562 9.04175 10.5284C8.93734 10.5029 8.84927 10.4542 8.77754 10.382C8.76449 10.3689 8.75083 10.3564 8.73623 10.345C8.70853 10.3234 8.68326 10.3014 8.66029 10.2774C8.60614 10.2207 8.62705 10.1327 8.6899 10.0859L8.69861 10.0794C8.7732 10.0238 8.89467 10.0391 8.95277 10.1117C8.99722 10.1673 9.05837 10.2228 9.13615 10.2506C9.21671 10.2784 9.31952 10.3062 9.44729 10.3062C9.61952 10.3062 9.76112 10.2507 9.87223 10.1673C9.98335 10.084 10.0389 9.97276 10.0389 9.77832V9.38043C10.0389 9.37006 10.0305 9.36165 10.0201 9.36165C10.0144 9.36165 10.009 9.36422 10.0056 9.36876C9.98313 9.39822 9.94924 9.44938 9.90831 9.50054C9.81451 9.62561 9.65699 9.69665 9.50191 9.71639C9.4674 9.72078 9.43063 9.72298 9.39168 9.72298C9.38566 9.72298 9.37966 9.72291 9.37367 9.72277C9.06102 9.71551 8.76392 9.52357 8.61111 9.25071C8.53056 9.08404 8.49175 8.88943 8.49175 8.66721C8.49175 8.47276 8.53062 8.27832 8.6084 8.11165C8.6834 7.94499 8.78886 7.83404 8.92497 7.72293C9.06108 7.63959 9.21947 7.61171 9.39724 7.61171C9.53613 7.61171 9.64723 7.61176 9.72778 7.66732C9.80834 7.72287 9.87221 7.77832 9.91387 7.83388C9.9549 7.88515 9.98885 7.91277 10.0113 7.9604C10.0148 7.96776 10.022 7.97276 10.0302 7.97276C10.0411 7.97276 10.05 7.96386 10.05 7.95287V7.79658C10.05 7.70991 10.1203 7.63965 10.207 7.63965C10.2936 7.63965 10.3639 7.70991 10.3639 7.79658V9.80626C10.3639 10.0007 10.325 10.1395 10.2417 10.2506C10.1584 10.3617 10.0472 10.4451 9.90831 10.5007C9.7722 10.5563 9.61674 10.584 9.44729 10.584ZM9.43617 9.41726C9.56673 9.41726 9.67776 9.38954 9.76942 9.33398C9.85831 9.27843 9.92782 9.19499 9.97504 9.08388C10.0223 8.97276 10.0445 8.83388 10.0445 8.66721C10.0445 8.52832 10.0223 8.38959 9.97504 8.27848C9.90374 8.05566 9.68134 7.89238 9.4474 7.88955C9.44367 7.88951 9.43993 7.88949 9.43617 7.88949C9.42946 7.88949 9.42279 7.88955 9.41617 7.88969C9.18285 7.89459 8.97746 8.0637 8.88618 8.27848C8.84173 8.38959 8.81944 8.52832 8.81944 8.66721C8.81944 8.83388 8.84167 8.9451 8.88889 9.05621C8.93333 9.16732 9.00284 9.27843 9.09451 9.33398C9.18618 9.38954 9.30006 9.41726 9.43617 9.41726ZM11.8222 9.80626C11.6334 9.80626 11.4639 9.75071 11.3194 9.66737C11.175 9.55626 11.0639 9.44504 10.9833 9.27837C10.9028 9.11171 10.8611 8.91737 10.8611 8.69515C10.8611 8.47293 10.9028 8.27832 10.9833 8.11165C11.0639 7.94499 11.175 7.83393 11.3194 7.7506C11.4639 7.63949 11.6334 7.61171 11.8222 7.61171C11.8319 7.61171 11.8416 7.61178 11.8512 7.61193C12.1861 7.61716 12.5181 7.81006 12.6638 8.11165C12.7444 8.27832 12.7833 8.47293 12.7833 8.69515C12.7833 8.91737 12.7444 9.11171 12.6638 9.27837C12.5833 9.44504 12.4695 9.55626 12.325 9.66737C12.1834 9.75071 12.0139 9.80626 11.8222 9.80626ZM11.8222 9.50054C11.9695 9.50054 12.0889 9.47293 12.1833 9.38959C12.2777 9.30626 12.3472 9.22276 12.3916 9.08388C12.4361 8.97276 12.4584 8.83404 12.4584 8.69515C12.4584 8.55626 12.4361 8.41726 12.3916 8.30615C12.2995 8.07577 12.0799 7.89362 11.8318 7.88956C11.8286 7.88951 11.8254 7.88949 11.8222 7.88949C11.8199 7.88949 11.8176 7.8895 11.8154 7.88953C11.5673 7.89256 11.3477 8.07577 11.2556 8.30615C11.2111 8.41726 11.189 8.55626 11.189 8.69515C11.189 8.83404 11.2111 8.97276 11.2556 9.08388C11.3 9.22276 11.3695 9.30626 11.4639 9.38959C11.5583 9.47293 11.6778 9.50054 11.8222 9.50054ZM13.4459 9.75065C13.3562 9.75065 13.2834 9.6779 13.2834 9.58816V7.80214C13.2834 7.7124 13.3562 7.63965 13.4459 7.63965C13.5357 7.63965 13.6084 7.7124 13.6084 7.80214V9.58816C13.6084 9.6779 13.5357 9.75065 13.4459 9.75065ZM13.4473 7.27832C13.3315 7.27832 13.2213 7.17991 13.2168 7.06418C13.2167 7.06151 13.2167 7.05883 13.2167 7.05615C13.2167 7.05359 13.2167 7.05102 13.2168 7.04846C13.2211 6.93267 13.3314 6.83398 13.4473 6.83398C13.5634 6.83398 13.675 6.93162 13.6804 7.04759C13.6805 7.05044 13.6806 7.0533 13.6806 7.05615C13.6806 7.05912 13.6805 7.06209 13.6803 7.06506C13.6748 7.18095 13.5633 7.27832 13.4473 7.27832ZM14.5306 8.47298V9.58816C14.5306 9.6779 14.4578 9.75065 14.3681 9.75065C14.2783 9.75065 14.2056 9.6779 14.2056 9.58816V7.79658C14.2056 7.70991 14.2759 7.63965 14.3625 7.63965C14.4492 7.63965 14.5195 7.70991 14.5195 7.79658V7.95588C14.5195 7.9652 14.527 7.97276 14.5363 7.97276C14.543 7.97276 14.549 7.96886 14.5518 7.96284C14.5961 7.86877 14.6588 7.7946 14.7419 7.72269C14.7636 7.7039 14.7874 7.68746 14.8135 7.67563C14.9078 7.63299 15.0255 7.61171 15.1667 7.61171C15.3111 7.61171 15.4361 7.63943 15.5444 7.69499C15.65 7.75054 15.7361 7.83398 15.7944 7.9451C15.8555 8.08398 15.8834 8.22276 15.8834 8.38943V9.58816C15.8834 9.6779 15.8106 9.75065 15.7209 9.75065C15.6312 9.75065 15.5584 9.6779 15.5584 9.58816V8.41737C15.5584 8.40804 15.5583 8.39888 15.558 8.38988C15.5499 8.12932 15.333 7.88949 15.0723 7.88949C15.0672 7.88949 15.0622 7.88955 15.0572 7.88969C14.8719 7.89465 14.6901 8.00372 14.6029 8.16726C14.5556 8.2506 14.5306 8.36187 14.5306 8.47298ZM17.3362 10.584C17.1778 10.584 17.0445 10.5562 16.9306 10.5284C16.8262 10.5029 16.7382 10.4542 16.6665 10.3821C16.6534 10.3689 16.6397 10.3563 16.625 10.3449C16.5977 10.3237 16.5728 10.302 16.5501 10.2784C16.4952 10.2212 16.5161 10.1322 16.5795 10.0845L16.584 10.0811C16.6599 10.024 16.7801 10.0393 16.8416 10.1117C16.8861 10.1673 16.9472 10.2228 17.025 10.2506C17.1056 10.2784 17.2084 10.3062 17.3362 10.3062C17.5084 10.3062 17.65 10.2507 17.7611 10.1673C17.8722 10.084 17.9278 9.97276 17.9278 9.77832V9.38089C17.9278 9.37027 17.9192 9.36165 17.9086 9.36165C17.9031 9.36165 17.8979 9.36393 17.8944 9.36813C17.8701 9.3975 17.8385 9.44902 17.7973 9.50054C17.6988 9.62373 17.5426 9.69775 17.386 9.71692C17.353 9.72096 17.3179 9.72298 17.2805 9.72298C17.2752 9.72298 17.2699 9.72293 17.2646 9.72282C16.9506 9.71654 16.6548 9.52234 16.4973 9.25071C16.4195 9.08404 16.3806 8.88943 16.3806 8.66721C16.3806 8.47276 16.4194 8.27832 16.4944 8.11165C16.5722 7.94499 16.6779 7.83404 16.814 7.72293C16.9501 7.63959 17.1083 7.61171 17.2861 7.61171C17.425 7.61171 17.5334 7.61176 17.6139 7.66732C17.6973 7.72287 17.7583 7.77832 17.8027 7.83388C17.8439 7.88534 17.8756 7.91297 17.8999 7.96093C17.9035 7.96805 17.9107 7.97276 17.9186 7.97276C17.9298 7.97276 17.9389 7.96369 17.9389 7.9525V7.79658C17.9389 7.70991 18.0092 7.63965 18.0958 7.63965C18.1825 7.63965 18.2528 7.70991 18.2528 7.79658V9.80626C18.2528 10.0007 18.2112 10.1395 18.1278 10.2506C18.0473 10.3617 17.9362 10.4451 17.7973 10.5007C17.6584 10.5563 17.5056 10.584 17.3362 10.584ZM17.325 9.41726C17.4556 9.41726 17.5667 9.38954 17.6556 9.33398C17.7472 9.27843 17.8167 9.19499 17.8612 9.08388C17.9084 8.97276 17.9333 8.83388 17.9333 8.66721C17.9333 8.52832 17.9083 8.38959 17.8639 8.27848C17.7883 8.05613 17.5672 7.89135 17.3324 7.88951C17.3299 7.8895 17.3275 7.88949 17.325 7.88949C17.3184 7.88949 17.3118 7.88955 17.3052 7.88968C17.0717 7.89437 16.8618 8.06161 16.775 8.27848C16.7278 8.38959 16.7056 8.52832 16.7056 8.66721C16.7056 8.83388 16.7306 8.9451 16.775 9.05621C16.8223 9.16732 16.8917 9.27843 16.9834 9.33398C17.075 9.38954 17.1889 9.41726 17.325 9.41726ZM20.5667 9.80626C20.4333 9.80626 20.3111 9.77854 20.2028 9.72298C19.9951 9.61917 19.8528 9.40317 19.845 9.17116C19.8446 9.16062 19.8444 9.15005 19.8444 9.13949C19.8444 9.08052 19.8507 9.02156 19.8641 8.9709C19.8848 8.89229 19.9329 8.82319 19.9894 8.76472C20.0601 8.69157 20.1569 8.64965 20.254 8.61929C20.2916 8.60751 20.3309 8.59572 20.3722 8.58393C20.4294 8.56758 20.4876 8.55122 20.5456 8.54052C20.6252 8.52582 20.7064 8.51781 20.7869 8.50894C20.7892 8.50868 20.7916 8.50843 20.7939 8.50819C20.917 8.49534 21.0576 8.51699 21.1583 8.44504C21.1944 8.41726 21.2139 8.38965 21.2139 8.33409V8.30615C21.2139 8.19504 21.1778 8.08404 21.1028 8.00071C21.0278 7.91737 20.9167 7.88949 20.7667 7.88949C20.6231 7.88949 20.5077 7.91328 20.4209 7.98258C20.4065 7.99407 20.3919 8.00539 20.377 8.01612C20.3463 8.03813 20.3193 8.06351 20.2959 8.09091C20.2389 8.15749 20.1497 8.1997 20.0672 8.16996C19.9789 8.13809 19.9322 8.03763 19.9818 7.95792C20.0166 7.90209 20.0559 7.85603 20.0999 7.82319C20.1161 7.81111 20.1326 7.79935 20.1482 7.78648C20.2358 7.71406 20.3285 7.66517 20.4306 7.63965C20.539 7.61187 20.6501 7.61171 20.7556 7.61171C20.912 7.61171 21.0787 7.62277 21.2138 7.7016C21.225 7.70818 21.2362 7.71529 21.2473 7.72293C21.4199 7.8343 21.5155 8.038 21.5338 8.24263C21.5372 8.28062 21.5389 8.32033 21.5389 8.36176V9.58816C21.5389 9.6779 21.4662 9.75065 21.3764 9.75065H21.3528C21.2761 9.75065 21.2139 9.68847 21.2139 9.61176V9.48414C21.2139 9.47792 21.2089 9.47287 21.2027 9.47287C21.1992 9.47287 21.196 9.47441 21.1939 9.47711C21.1715 9.50605 21.1364 9.5589 21.0862 9.61176C20.9756 9.73464 20.8024 9.78933 20.6377 9.80326C20.6149 9.80519 20.5912 9.80626 20.5667 9.80626ZM20.6167 9.50054C20.6775 9.50054 20.7335 9.49457 20.7849 9.48538C20.8925 9.46614 20.9998 9.41815 21.0698 9.33418C21.1285 9.26376 21.1821 9.18839 21.2018 9.09887C21.21 9.06186 21.2139 9.01989 21.2139 8.97293V8.77031C21.2139 8.7288 21.1917 8.70959 21.1513 8.71931C21.1376 8.72261 21.1161 8.72714 21.1032 8.73289C21.0819 8.74243 21.0586 8.74789 21.034 8.75435C20.9867 8.76676 20.9386 8.77843 20.8898 8.77843C20.8855 8.77843 20.8813 8.77843 20.877 8.77843C20.8172 8.77843 20.7589 8.79768 20.6995 8.80415C20.6814 8.80612 20.665 8.8061 20.65 8.8061C20.5666 8.8061 20.4862 8.83393 20.414 8.86171C20.339 8.88949 20.2806 8.91737 20.2361 8.97293C20.1917 9.02848 20.1694 9.08409 20.1694 9.16743C20.1694 9.27854 20.2111 9.36171 20.2945 9.41726C20.3806 9.47282 20.4889 9.50054 20.6167 9.50054ZM22.4611 8.47298V9.58816C22.4611 9.6779 22.3883 9.75065 22.2986 9.75065C22.2088 9.75065 22.1361 9.6779 22.1361 9.58816V7.79664C22.1361 7.70994 22.2064 7.63965 22.2931 7.63965C22.3798 7.63965 22.4501 7.70994 22.4501 7.79664V7.95596C22.4501 7.96524 22.4576 7.97276 22.4669 7.97276C22.4735 7.97276 22.4795 7.96888 22.4823 7.96289C22.5258 7.87046 22.5871 7.79724 22.6662 7.72651C22.6901 7.70511 22.7167 7.6867 22.7462 7.67389C22.8416 7.63241 22.958 7.61171 23.0972 7.61171C23.2389 7.61171 23.3639 7.63943 23.4722 7.69499C23.5806 7.75054 23.6639 7.83398 23.725 7.9451C23.7834 8.08398 23.8139 8.22276 23.8139 8.38943V9.58816C23.8139 9.6779 23.7411 9.75065 23.6514 9.75065C23.5617 9.75065 23.4889 9.6779 23.4889 9.58816V8.41737C23.4889 8.40804 23.4888 8.39888 23.4885 8.38988C23.4804 8.12932 23.2635 7.88949 23.0028 7.88949C22.9967 7.88949 22.9906 7.88958 22.9846 7.88977C22.7995 7.89549 22.6218 8.0062 22.5305 8.16726C22.4833 8.2506 22.4611 8.36187 22.4611 8.47298ZM25.2112 9.80626C25.0334 9.80626 24.8779 9.75071 24.7418 9.66737C24.6084 9.58404 24.5 9.44504 24.4251 9.27837C24.3473 9.11171 24.3111 8.91737 24.3111 8.69515C24.3111 8.47293 24.3473 8.27832 24.4251 8.11165C24.5 7.94499 24.6084 7.83404 24.7445 7.72293C24.8806 7.63959 25.0362 7.61171 25.2167 7.61171C25.3556 7.61171 25.4639 7.61176 25.5444 7.66732C25.625 7.72287 25.6861 7.77832 25.7278 7.83388C25.7698 7.88639 25.8019 7.91409 25.8264 7.96389C25.8291 7.96924 25.8345 7.97276 25.8404 7.97276C25.8488 7.97276 25.8556 7.96598 25.8556 7.95761V7.08118C25.8556 6.99065 25.929 6.91726 26.0195 6.91726C26.11 6.91726 26.1834 6.99065 26.1834 7.08118V9.5923C26.1834 9.67975 26.1125 9.75065 26.0251 9.75065C25.9376 9.75065 25.8667 9.67975 25.8667 9.5923V9.43917C25.8667 9.42707 25.8569 9.41726 25.8448 9.41726C25.8362 9.41726 25.8284 9.42237 25.8245 9.43005C25.8026 9.47289 25.7749 9.5013 25.7397 9.56257C25.7316 9.57675 25.7229 9.5908 25.7115 9.60247C25.6682 9.6465 25.61 9.6739 25.5389 9.72298C25.4555 9.77854 25.3473 9.80626 25.2112 9.80626ZM25.2555 9.50054C25.2578 9.50054 25.26 9.50053 25.2623 9.50052C25.4956 9.49879 25.7004 9.32656 25.7917 9.11182C25.8389 9.00071 25.8611 8.86182 25.8611 8.69515C25.8611 8.52848 25.8389 8.38959 25.7944 8.27848C25.7032 8.06379 25.4984 7.89202 25.2651 7.88954C25.2619 7.8895 25.2587 7.88949 25.2555 7.88949C25.1166 7.88949 25.0028 7.91737 24.9083 8.00071C24.8194 8.08404 24.75 8.16737 24.7028 8.27848C24.6584 8.41737 24.6361 8.52848 24.6361 8.69515C24.6361 8.83404 24.6583 8.97293 24.7055 9.11182C24.7968 9.32657 25.0024 9.49551 25.2357 9.50034C25.2422 9.50048 25.2489 9.50054 25.2555 9.50054ZM29.4164 7.63965C29.531 7.63965 29.6104 7.75384 29.5706 7.86122L28.9275 9.59437C28.8926 9.68831 28.803 9.75065 28.7028 9.75065C28.6026 9.75065 28.513 9.68831 28.4781 9.59437L27.835 7.86122C27.7952 7.75384 27.8746 7.63965 27.9892 7.63965C28.0589 7.63965 28.1211 7.68369 28.1442 7.7495L28.688 9.29582C28.6902 9.30211 28.6961 9.30632 28.7028 9.30632C28.7095 9.30632 28.7154 9.30211 28.7176 9.29582L29.2614 7.7495C29.2845 7.68369 29.3467 7.63965 29.4164 7.63965ZM30.8972 9.80626C30.6917 9.80626 30.5168 9.75071 30.3668 9.66737C30.2195 9.55626 30.1056 9.44504 30.0278 9.27837C29.9473 9.11171 29.9083 8.91737 29.9083 8.69515C29.9083 8.50071 29.9473 8.30626 30.0278 8.13959C30.1056 7.97293 30.2195 7.83393 30.3612 7.7506C30.5056 7.63949 30.6722 7.61171 30.8639 7.61171C31.0872 7.61171 31.3178 7.67822 31.4818 7.82985C31.4833 7.83118 31.4847 7.83253 31.4861 7.83388C31.5723 7.91721 31.6444 8.02837 31.6972 8.16726C31.75 8.30615 31.775 8.47276 31.775 8.66721C31.775 8.74392 31.7129 8.8061 31.6362 8.8061H30.2778C30.2011 8.8061 30.1389 8.74392 30.1389 8.66721C30.1389 8.5905 30.2011 8.52832 30.2778 8.52832H31.0999C31.2902 8.52832 31.466 8.36078 31.3722 8.1952C31.325 8.11187 31.2583 8.02832 31.1694 7.97276C31.0833 7.91721 30.9805 7.88949 30.8639 7.88949C30.804 7.88949 30.7482 7.89535 30.6963 7.90973C30.5724 7.94402 30.4665 8.02299 30.387 8.12392C30.3281 8.19868 30.28 8.28964 30.2554 8.38157C30.2405 8.43695 30.2333 8.49663 30.2333 8.55626V8.75076C30.2333 8.91743 30.2612 9.05632 30.3167 9.16743C30.3723 9.27854 30.45 9.36171 30.55 9.41726C30.65 9.47282 30.7639 9.50054 30.8972 9.50054C30.9833 9.50054 31.0611 9.50065 31.1278 9.47287C31.2 9.4451 31.2584 9.41721 31.3112 9.36165C31.328 9.34299 31.3435 9.32435 31.3578 9.30466C31.4089 9.23429 31.4933 9.1848 31.5773 9.2071C31.6672 9.23095 31.7223 9.32644 31.6767 9.40746C31.6541 9.44757 31.6277 9.4831 31.5976 9.51022C31.5832 9.52318 31.5684 9.53569 31.5549 9.54954C31.5218 9.58345 31.4854 9.61658 31.4461 9.64514C31.3497 9.71504 31.2333 9.75489 31.1174 9.78201C31.0483 9.79818 30.9752 9.80626 30.8972 9.80626ZM32.4348 9.75065C32.345 9.75065 32.2723 9.6779 32.2723 9.58816V7.79658C32.2723 7.70991 32.3425 7.63965 32.4292 7.63965H32.4334C32.5178 7.63965 32.5861 7.70803 32.5861 7.79237V7.93208C32.5861 7.93927 32.592 7.9451 32.5991 7.9451C32.6047 7.9451 32.6096 7.94159 32.6115 7.9364C32.6509 7.82962 32.7193 7.74908 32.8167 7.69499C32.9195 7.63943 33.0333 7.58404 33.1611 7.58404C33.1786 7.58404 33.2014 7.58404 33.228 7.58404C33.2423 7.58404 33.256 7.58924 33.2684 7.59631C33.2718 7.59824 33.2751 7.59992 33.2783 7.60139C33.3053 7.61383 33.3306 7.63581 33.3306 7.66554V7.85905C33.3306 7.8773 33.2739 7.91743 33.2556 7.91743C33.2167 7.91743 33.1751 7.91743 33.1334 7.91743C33.0868 7.91743 33.0418 7.92311 32.9991 7.93191C32.9021 7.95191 32.8045 8.00367 32.7321 8.0713C32.6818 8.11829 32.6461 8.16851 32.6243 8.23382C32.606 8.28863 32.5973 8.34751 32.5973 8.41737V9.58816C32.5973 9.6779 32.5245 9.75065 32.4348 9.75065ZM35.1599 7.96671C35.2013 8.04252 35.1516 8.1311 35.0685 8.15489L35.0602 8.15729C34.9859 8.17857 34.9155 8.12779 34.8631 8.07096C34.8519 8.05882 34.843 8.04901 34.8327 8.03607C34.816 8.01498 34.7972 7.99766 34.7761 7.97976C34.7275 7.93852 34.6732 7.90119 34.6099 7.89417C34.5681 7.88953 34.5212 7.88949 34.4694 7.88949C34.3388 7.88949 34.2305 7.91721 34.1444 7.97276C34.0583 8.02832 34.0167 8.11187 34.0167 8.1952C34.0167 8.27854 34.0445 8.33388 34.1056 8.38943C34.164 8.44499 34.2556 8.47287 34.3806 8.50065L34.6944 8.58393C34.7233 8.59229 34.751 8.60064 34.7775 8.60919C35.0311 8.69073 35.2584 8.90104 35.2584 9.16743C35.2584 9.38707 35.1092 9.59233 34.9162 9.69725C34.8994 9.7064 34.882 9.71498 34.864 9.72298C34.739 9.77854 34.5945 9.80626 34.4306 9.80626C34.2139 9.80626 34.0361 9.75071 33.8945 9.66737C33.7969 9.59084 33.7231 9.50113 33.6748 9.39824C33.6376 9.31912 33.6913 9.23282 33.7757 9.21002C33.8629 9.18647 33.949 9.24113 33.9998 9.31586C34.0272 9.3563 34.0607 9.39009 34.1001 9.41726C34.1834 9.47282 34.2917 9.50054 34.425 9.50054C34.4527 9.50054 34.4793 9.49963 34.5048 9.49781C34.7009 9.48381 34.9223 9.36402 34.9223 9.16743C34.9223 9.15845 34.9216 9.14875 34.9203 9.13866C34.9063 9.03175 34.8207 8.95312 34.721 8.91202C34.656 8.88523 34.5737 8.88153 34.5053 8.86544L34.2528 8.8061C34.2223 8.79737 34.193 8.78796 34.1651 8.77797C33.9181 8.68973 33.689 8.48513 33.689 8.22287C33.689 8.08398 33.725 8.0006 33.7916 7.88949C33.9406 7.70329 34.185 7.62148 34.4233 7.61258C34.4385 7.61201 34.4538 7.61171 34.4694 7.61171C34.6777 7.61171 34.8445 7.63949 34.9639 7.7506C35.0448 7.80703 35.1104 7.87618 35.1599 7.96671ZM36.3751 9.80626C36.2389 9.80626 36.1166 9.77854 36.0083 9.72298C35.8972 9.66743 35.8111 9.61165 35.7472 9.50054C35.6833 9.41721 35.65 9.27837 35.65 9.13949C35.65 9.07719 35.6578 9.01489 35.6731 8.96239C35.694 8.89031 35.7374 8.82629 35.7886 8.7714C35.8623 8.6924 35.9655 8.64877 36.0687 8.61683C36.1041 8.60587 36.1405 8.5949 36.1778 8.58393C36.2364 8.56765 36.2941 8.55136 36.3513 8.54066C36.4309 8.52578 36.512 8.51782 36.5925 8.50894C36.5947 8.5087 36.597 8.50846 36.5992 8.50822C36.7225 8.49531 36.8657 8.52062 36.964 8.44504C37.0001 8.41726 37.0195 8.38965 37.0195 8.33409V8.30615C37.0195 8.19504 36.9834 8.08404 36.9084 8.00071C36.8334 7.91737 36.7223 7.88949 36.5723 7.88949C36.4278 7.88949 36.312 7.91355 36.225 7.98377C36.2116 7.99455 36.1981 8.00519 36.1843 8.0153C36.1536 8.03762 36.1262 8.06345 36.1021 8.09137C36.0449 8.15778 35.9552 8.1997 35.8727 8.16996C35.7844 8.13809 35.7376 8.03757 35.7875 7.95799C35.8217 7.90344 35.8604 7.85821 35.9042 7.82553C35.9229 7.81166 35.9418 7.79815 35.9596 7.78325C36.044 7.71261 36.1356 7.66479 36.2362 7.63965C36.3473 7.61187 36.4556 7.61171 36.5611 7.61171C36.7195 7.61171 36.8875 7.62423 37.0245 7.70359C37.0349 7.70961 37.0452 7.71606 37.0555 7.72293C37.1389 7.77848 37.2083 7.86176 37.2639 7.9451C37.3194 8.05621 37.3473 8.1951 37.3473 8.36176V9.58674C37.3473 9.67726 37.2739 9.75065 37.1834 9.75065H37.1583C37.0816 9.75065 37.0195 9.68847 37.0195 9.61176V9.48414C37.0195 9.47792 37.0144 9.47287 37.0082 9.47287C37.0048 9.47287 37.0015 9.47441 36.9994 9.47711C36.977 9.50605 36.9421 9.5589 36.8945 9.61176C36.7797 9.73267 36.6076 9.79013 36.4413 9.80357C36.4198 9.8053 36.3977 9.80626 36.3751 9.80626ZM36.4223 9.50054C36.4831 9.50054 36.5391 9.49456 36.5906 9.48536C36.6982 9.46613 36.8055 9.41816 36.8754 9.33418C36.9341 9.26375 36.9876 9.1884 37.0073 9.09891C37.0155 9.06189 37.0195 9.01991 37.0195 8.97293V8.77031C37.0195 8.7288 36.9972 8.70959 36.9569 8.71931C36.9432 8.72261 36.9216 8.72714 36.9087 8.73294C36.887 8.7428 36.8633 8.74831 36.8379 8.75509C36.7918 8.76738 36.7448 8.77843 36.6971 8.77843C36.6926 8.77843 36.6882 8.77843 36.6838 8.77843C36.625 8.77843 36.5676 8.79658 36.5092 8.8037C36.4894 8.80612 36.4717 8.8061 36.4556 8.8061C36.3723 8.8061 36.2917 8.83393 36.2195 8.86171C36.1473 8.88949 36.0889 8.91737 36.0417 8.97293C35.9972 9.02848 35.9751 9.08409 35.9751 9.16743C35.9751 9.27854 36.0167 9.36171 36.1028 9.41726C36.1862 9.47282 36.2945 9.50054 36.4223 9.50054ZM38.725 7.63965C38.8018 7.63965 38.8639 7.70183 38.8639 7.77854C38.8639 7.85524 38.8018 7.91743 38.725 7.91743H37.9028C37.8261 7.91743 37.7639 7.85524 37.7639 7.77854C37.7639 7.70183 37.8261 7.63965 37.9028 7.63965H38.725ZM38.0834 7.27568C38.0834 7.18515 38.1567 7.11176 38.2473 7.11176C38.3378 7.11176 38.4112 7.18515 38.4112 7.27568V9.13949C38.4112 9.20139 38.4188 9.26327 38.433 9.31377C38.442 9.34616 38.4589 9.37171 38.4848 9.39315C38.5271 9.42807 38.5847 9.4482 38.6373 9.46347C38.6551 9.46863 38.6732 9.47287 38.6917 9.47287C38.7202 9.47287 38.7452 9.47294 38.7654 9.45933C38.7763 9.45198 38.791 9.4452 38.8041 9.4452C38.8245 9.4452 38.8392 9.45936 38.8436 9.47922L38.8868 9.67724C38.8951 9.71496 38.8712 9.75065 38.8326 9.75065C38.82 9.75065 38.803 9.75501 38.7917 9.76058C38.7555 9.7784 38.711 9.77832 38.6583 9.77832C38.475 9.77832 38.291 9.69058 38.1808 9.54408C38.177 9.53899 38.1732 9.53379 38.1695 9.52848C38.1139 9.44515 38.0834 9.36165 38.0834 9.22276V7.27568ZM39.5167 9.75065C39.4261 9.75065 39.3528 9.67726 39.3528 9.58674V7.80356C39.3528 7.71303 39.4261 7.63965 39.5167 7.63965C39.6072 7.63965 39.6806 7.71303 39.6806 7.80356V9.58674C39.6806 9.67726 39.6072 9.75065 39.5167 9.75065ZM39.5195 7.27832C39.4034 7.27832 39.2919 7.18095 39.2864 7.06506C39.2862 7.06209 39.2862 7.05912 39.2862 7.05615C39.2862 7.0533 39.2862 7.05044 39.2864 7.04759C39.2917 6.93162 39.4034 6.83398 39.5195 6.83398C39.6353 6.83398 39.7471 6.93172 39.7525 7.04747C39.7527 7.05036 39.7527 7.05326 39.7527 7.05615C39.7527 7.05916 39.7527 7.06217 39.7525 7.06518C39.7469 7.18085 39.6353 7.27832 39.5195 7.27832ZM40.4403 6.91726C40.53 6.91726 40.6028 6.99001 40.6028 7.07975V9.58816C40.6028 9.6779 40.53 9.75065 40.4403 9.75065C40.3505 9.75065 40.2778 9.6779 40.2778 9.58816V7.07975C40.2778 6.99001 40.3505 6.91726 40.4403 6.91726ZM42.0889 9.80626C41.8833 9.80626 41.7084 9.75071 41.5611 9.66737C41.4139 9.55626 41.3 9.44504 41.2195 9.27837C41.1389 9.11171 41.1 8.91737 41.1 8.69515C41.1 8.50071 41.1389 8.30626 41.2195 8.13959C41.3 7.97293 41.4111 7.83393 41.5527 7.7506C41.6972 7.63949 41.8639 7.61171 42.0555 7.61171C42.2789 7.61171 42.5095 7.67822 42.6735 7.82985C42.6749 7.83118 42.6764 7.83253 42.6778 7.83388C42.7667 7.91721 42.8361 8.02837 42.8889 8.16726C42.9416 8.30615 42.9667 8.47276 42.9667 8.66721C42.9667 8.74392 42.9045 8.8061 42.8278 8.8061H41.4723C41.3956 8.8061 41.3334 8.74392 41.3334 8.66721C41.3334 8.5905 41.3956 8.52832 41.4723 8.52832H42.2916C42.4819 8.52832 42.6577 8.36078 42.5639 8.1952C42.5167 8.11187 42.45 8.02832 42.3611 7.97276C42.275 7.91721 42.1722 7.88949 42.0555 7.88949C41.9957 7.88949 41.9399 7.89535 41.8879 7.90973C41.7641 7.94402 41.6582 8.02299 41.5786 8.12392C41.5197 8.19868 41.4717 8.28964 41.447 8.38157C41.4322 8.43695 41.425 8.49663 41.425 8.55626V8.75076C41.425 8.91743 41.4528 9.05632 41.5084 9.16743C41.5639 9.27854 41.6417 9.36171 41.7417 9.41726C41.8417 9.47282 41.9583 9.50054 42.0889 9.50054C42.175 9.50054 42.2528 9.50065 42.3195 9.47287C42.3917 9.4451 42.4501 9.41721 42.5028 9.36165C42.5196 9.34299 42.5352 9.32435 42.5495 9.30466C42.6006 9.23429 42.685 9.1848 42.769 9.2071C42.8589 9.23095 42.914 9.32644 42.8684 9.40746C42.8457 9.44757 42.8194 9.4831 42.7893 9.51022C42.7749 9.52318 42.7601 9.53569 42.7466 9.54954C42.7134 9.58345 42.6771 9.61658 42.6377 9.64514C42.5414 9.71504 42.425 9.75489 42.3091 9.78201C42.24 9.79818 42.1669 9.80626 42.0889 9.80626Z" fill="black"/>
</g>
</svg>
