<svg width="19" height="10" viewBox="0 0 19 10" fill="none" xmlns="http://www.w3.org/2000/svg">
<g opacity="0.2">
<path d="M0 0.482034C0 0.215814 0.215814 0 0.482034 0C0.677707 0 0.853966 0.118288 0.928116 0.299368L1.87823 2.61962C1.883 2.63128 1.89435 2.63889 1.90694 2.63889C1.91954 2.63889 1.93088 2.63128 1.93565 2.61962L2.88577 0.299368C2.95992 0.118288 3.13618 0 3.33185 0C3.59807 0 3.81388 0.215814 3.81388 0.482034V3.32208C3.81388 3.49699 3.67209 3.63878 3.49718 3.63878C3.32227 3.63878 3.18047 3.49699 3.18047 3.32208V1.15861C3.18047 1.14766 3.1716 1.13878 3.16064 1.13878C3.15255 1.13878 3.14526 1.1437 3.14224 1.15121L2.22973 3.41982C2.17652 3.55211 2.04824 3.63878 1.90564 3.63878C1.76292 3.63878 1.63456 3.55196 1.58143 3.4195L0.672058 1.15229C0.668785 1.14413 0.660876 1.13878 0.652083 1.13878C0.640197 1.13878 0.630561 1.14842 0.630561 1.1603V3.3235C0.630561 3.49762 0.489405 3.63878 0.31528 3.63878C0.141156 3.63878 0 3.49762 0 3.3235V0.482034ZM5.6916 3.69439C5.42493 3.69439 5.19444 3.63867 5 3.52756C4.80556 3.38867 4.65274 3.22206 4.54441 3.02762C4.43885 2.80539 4.38612 2.55534 4.38612 2.27756C4.38612 1.99978 4.43885 1.74989 4.54441 1.55545C4.65274 1.33322 4.80556 1.16661 5 1.0555C5.19444 0.94439 5.42493 0.888672 5.6916 0.888672C5.95826 0.888672 6.18888 0.94439 6.38333 1.0555C6.58055 1.16661 6.73052 1.33322 6.83607 1.55545C6.94441 1.74989 6.99992 1.99978 6.99992 2.27756C6.99992 2.55534 6.94441 2.80539 6.83607 3.02762C6.73052 3.22206 6.58055 3.38867 6.38333 3.52756C6.18888 3.63867 5.95826 3.69439 5.6916 3.69439ZM5.69444 3.1665C5.83889 3.1665 5.96113 3.13889 6.05835 3.05556C6.15557 2.97222 6.22773 2.86106 6.27496 2.72217C6.32218 2.61106 6.34725 2.44423 6.34725 2.27756C6.34725 2.11089 6.32218 1.97211 6.27496 1.83322C6.22773 1.69434 6.15557 1.58317 6.05835 1.49984C5.96113 1.4165 5.83889 1.38889 5.69444 1.38889C5.54722 1.38889 5.42498 1.4165 5.32498 1.49984C5.23053 1.58317 5.15559 1.69434 5.10837 1.83322C5.06115 1.97211 5.03608 2.11089 5.03608 2.27756C5.03608 2.44423 5.06115 2.61106 5.10837 2.72217C5.15559 2.86106 5.23053 2.97222 5.32498 3.05556C5.42498 3.13889 5.54722 3.1665 5.69444 3.1665ZM8.18604 2.02772V3.31801C8.18604 3.49517 8.04242 3.63878 7.86526 3.63878C7.6881 3.63878 7.54449 3.49517 7.54449 3.31801V1.22355C7.54449 1.05403 7.68191 0.916612 7.85143 0.916612H7.92223C8.05264 0.916612 8.15837 1.02234 8.15837 1.15275V1.36932C8.15837 1.38013 8.16713 1.38889 8.17793 1.38889C8.18614 1.38889 8.19346 1.38374 8.19641 1.37608C8.2579 1.21648 8.35632 1.10813 8.49162 0.999892C8.63051 0.916558 8.80004 0.888672 9.00282 0.888672C9.19171 0.888672 9.35547 0.916558 9.49436 0.999892C9.63602 1.08322 9.74441 1.19439 9.82218 1.33328C9.89996 1.49995 9.93883 1.69439 9.93883 1.88883V3.31658C9.93883 3.49453 9.79458 3.63878 9.61663 3.63878C9.43869 3.63878 9.29443 3.49453 9.29443 3.31658V1.99978C9.29443 1.99498 9.29439 1.99018 9.29432 1.98538C9.28955 1.694 9.05525 1.41656 8.76383 1.41656C8.65272 1.41656 8.5527 1.44428 8.46381 1.49984C8.3777 1.55539 8.30826 1.611 8.26104 1.69434C8.21104 1.80545 8.18604 1.91661 8.18604 2.02772ZM11.6028 3.69439C11.3889 3.69439 11.1971 3.63867 11.0277 3.52756C10.8583 3.41645 10.7249 3.25 10.6277 3.05556C10.5277 2.83333 10.4806 2.58312 10.4806 2.27756C10.4806 1.97201 10.5277 1.72206 10.6277 1.49984C10.7277 1.30539 10.8639 1.13867 11.0361 1.02756C11.2056 0.91645 11.3944 0.888672 11.6055 0.888672C11.6896 0.888672 11.7666 0.896523 11.8358 0.908047C11.946 0.926414 12.0521 0.968429 12.1371 1.04095C12.1662 1.06577 12.1927 1.09061 12.2165 1.11293C12.235 1.13022 12.2521 1.14898 12.2666 1.16977C12.314 1.23801 12.3518 1.30389 12.3784 1.35196C12.3815 1.35751 12.3873 1.36095 12.3936 1.36095C12.4032 1.36095 12.411 1.35316 12.411 1.34356V0.322266C12.411 0.144284 12.5553 0 12.7333 0C12.9113 0 13.0556 0.144283 13.0556 0.322266V3.3235C13.0556 3.49762 12.9144 3.63878 12.7403 3.63878H12.6333C12.5183 3.63878 12.425 3.54551 12.425 3.43045V3.24828C12.425 3.23383 12.4133 3.22211 12.3988 3.22211C12.3893 3.22211 12.3806 3.22733 12.3756 3.23551C12.3447 3.28677 12.2978 3.33997 12.2416 3.41661C12.1777 3.49995 12.0944 3.55556 11.9916 3.61111C11.8889 3.66667 11.7583 3.69439 11.6028 3.69439ZM11.7833 3.1665C12.0289 3.1665 12.2429 2.98215 12.3457 2.75918C12.3472 2.75607 12.3486 2.75295 12.35 2.74984C12.4 2.61095 12.425 2.44423 12.425 2.27756C12.425 2.11089 12.4 1.94444 12.35 1.80556C12.3481 1.80146 12.3463 1.79737 12.3444 1.79327C12.2423 1.57372 12.0254 1.41656 11.7833 1.41656C11.529 1.41656 11.2902 1.59243 11.2084 1.83322C11.1584 1.94434 11.1334 2.11089 11.1334 2.27756C11.1334 2.44423 11.1584 2.61106 11.2084 2.72217C11.2109 2.72919 11.2135 2.73614 11.2161 2.74302C11.3066 2.97867 11.5309 3.1665 11.7833 3.1665ZM14.525 3.69439C14.5101 3.69439 14.4953 3.69418 14.4806 3.69377C14.1929 3.6856 13.8994 3.56639 13.7305 3.33333C13.6527 3.19444 13.6138 3.0555 13.6138 2.86106C13.6138 2.72217 13.6417 2.58333 13.6972 2.5C13.7556 2.38889 13.8333 2.30545 13.9305 2.24989C14.0278 2.19434 14.1389 2.13878 14.2639 2.111C14.3388 2.09398 14.4168 2.07694 14.4961 2.06629C14.5961 2.05285 14.6972 2.0464 14.7966 2.02878C14.8022 2.02778 14.8078 2.02679 14.8134 2.02582C14.9601 2.00017 15.1265 2.0234 15.2528 1.94444C15.3 1.91667 15.3223 1.86111 15.3223 1.80556V1.77762C15.3223 1.55394 15.1136 1.37252 14.8902 1.36165C14.8807 1.36119 14.871 1.36095 14.8611 1.36095C14.7163 1.36095 14.5994 1.38427 14.5104 1.45197C14.4936 1.46469 14.4768 1.47733 14.4597 1.48952C14.4531 1.4942 14.4468 1.49904 14.4406 1.50404C14.3238 1.59825 14.1916 1.70658 14.0429 1.68594C13.8632 1.66099 13.7426 1.4773 13.8472 1.32901C13.8741 1.29089 13.9037 1.25523 13.9361 1.22206C14.0444 1.11095 14.1777 1.02778 14.3361 0.972222C14.4916 0.916667 14.6666 0.888672 14.8583 0.888672C14.9888 0.888672 15.1194 0.888835 15.25 0.916612C15.2532 0.917307 15.2565 0.918019 15.2597 0.918748C15.5103 0.974956 15.7346 1.14075 15.8667 1.36095C15.9334 1.47206 15.9667 1.63889 15.9667 1.80556V3.32906C15.9667 3.50011 15.828 3.63878 15.6569 3.63878H15.5278C15.428 3.63878 15.3472 3.55796 15.3472 3.45825V3.29235C15.3472 3.28427 15.3407 3.27772 15.3326 3.27772C15.3278 3.27772 15.3234 3.28004 15.3206 3.28396C15.2887 3.32997 15.2478 3.39248 15.195 3.443C15.1735 3.46357 15.1522 3.48447 15.1303 3.50465C15.1028 3.53009 15.0726 3.5496 15.0401 3.56735C14.9469 3.61817 14.8459 3.65528 14.7414 3.67408C14.6746 3.68611 14.6023 3.69439 14.525 3.69439ZM14.6917 3.22211C14.8223 3.22211 14.9334 3.19439 15.0278 3.13883C15.1222 3.08328 15.1945 3.02767 15.2473 2.94434C15.2973 2.861 15.325 2.74989 15.325 2.66656V2.442C15.325 2.40846 15.2629 2.36715 15.2332 2.38269C15.2277 2.38552 15.2189 2.38869 15.2128 2.38912C15.1883 2.39085 15.1623 2.39886 15.1344 2.40576C15.0869 2.41753 15.0385 2.43021 14.9903 2.43842C14.9853 2.43927 14.9803 2.43999 14.9753 2.44062C14.9169 2.44794 14.859 2.46197 14.8006 2.4692C14.7772 2.47208 14.7557 2.47206 14.7361 2.47206C14.6388 2.47206 14.5528 2.49989 14.4778 2.52767C14.4028 2.55545 14.3416 2.611 14.2971 2.66656C14.2555 2.72211 14.2333 2.77772 14.2333 2.86106C14.2333 2.97217 14.2749 3.08328 14.361 3.13883C14.4471 3.19439 14.5584 3.22211 14.6917 3.22211ZM16.9139 4.66661C16.8382 4.66661 16.7685 4.66649 16.7031 4.6493C16.6805 4.64334 16.6528 4.63916 16.6297 4.63587C16.5416 4.62337 16.5121 4.52425 16.5377 4.43904L16.5706 4.32929C16.6113 4.19345 16.7526 4.13873 16.8944 4.13873C17.0384 4.13873 17.1583 4.01494 17.2123 3.88153C17.2186 3.86614 17.2246 3.85003 17.2305 3.83328C17.2663 3.74378 17.2683 3.64427 17.2359 3.55345L16.4478 1.33953C16.3744 1.13333 16.5272 0.916612 16.7461 0.916612C16.8854 0.916612 17.0083 1.0076 17.049 1.14079L17.6043 2.95877C17.6067 2.96663 17.614 2.97201 17.6222 2.97201C17.6304 2.97201 17.6377 2.96664 17.6401 2.95879L18.198 1.14035C18.2388 1.00739 18.3616 0.916612 18.5006 0.916612C18.7196 0.916612 18.8724 1.13353 18.7988 1.33972L17.8583 3.97217C17.8566 3.9771 17.8548 3.98203 17.8529 3.98695C17.7602 4.23758 17.5904 4.47275 17.3471 4.58333C17.2249 4.63889 17.0806 4.66661 16.9139 4.66661Z" fill="black"/>
<path d="M1.60135 9.75136C1.49694 9.75136 1.40546 9.68147 1.37801 9.58074L0.709667 7.12831C0.680795 7.02237 0.760552 6.91797 0.870358 6.91797C0.946397 6.91797 1.01278 6.96947 1.03168 7.04312L1.58774 9.20998C1.58978 9.21792 1.59693 9.22347 1.60513 9.22347C1.6133 9.22347 1.62044 9.21795 1.6225 9.21004L2.16993 7.1062C2.19878 6.99534 2.29887 6.91797 2.41341 6.91797C2.52796 6.91797 2.62804 6.99534 2.65689 7.1062L3.20432 9.21004C3.20638 9.21795 3.21352 9.22347 3.2217 9.22347C3.22989 9.22347 3.23705 9.21792 3.23908 9.20998L3.79514 7.04312C3.81404 6.96947 3.88043 6.91797 3.95646 6.91797C4.06627 6.91797 4.14603 7.02237 4.11716 7.12831L3.44881 9.58074C3.42136 9.68147 3.32988 9.75136 3.22548 9.75136C3.12149 9.75136 3.03027 9.68202 3.00244 9.58183L2.42751 7.51218C2.42575 7.50585 2.41998 7.50146 2.41341 7.50146C2.40684 7.50146 2.40107 7.50585 2.39931 7.51218L1.82438 9.58183C1.79655 9.68202 1.70533 9.75136 1.60135 9.75136ZM4.88289 8.47369V9.58887C4.88289 9.67861 4.81015 9.75136 4.72041 9.75136C4.63066 9.75136 4.55792 9.67861 4.55792 9.58887V7.08046C4.55792 6.99072 4.63066 6.91797 4.72041 6.91797C4.81015 6.91797 4.88289 6.99072 4.88289 7.08046V7.95667C4.88289 7.96595 4.89042 7.97347 4.8997 7.97347C4.90631 7.97347 4.9123 7.96959 4.91508 7.96359C4.96503 7.85582 5.03854 7.7496 5.13558 7.69569C5.23558 7.64014 5.3689 7.61241 5.53556 7.61241C5.68001 7.61241 5.80782 7.64014 5.91615 7.69569C6.02448 7.75125 6.10786 7.83469 6.16897 7.9458C6.23008 8.08469 6.25781 8.22347 6.25781 8.39014V9.58887C6.25781 9.67861 6.18506 9.75136 6.09532 9.75136C6.00558 9.75136 5.93283 9.67861 5.93283 9.58887V8.41808C5.93283 8.41066 5.93275 8.40334 5.93257 8.39614C5.92613 8.13185 5.70553 7.89019 5.44116 7.89019C5.43523 7.89019 5.42933 7.89028 5.42345 7.89045C5.23462 7.89608 5.05225 8.00597 4.95505 8.16797C4.90783 8.2513 4.88289 8.36258 4.88289 8.47369ZM7.48001 9.80697C7.3439 9.80697 7.2245 9.77924 7.11339 9.72369C7.00506 9.66813 6.91618 9.61236 6.8523 9.50125C6.78841 9.41791 6.75505 9.27908 6.75505 9.14019C6.75505 9.07789 6.76293 9.0156 6.77817 8.96309C6.79911 8.89101 6.84253 8.827 6.89371 8.7721C6.96737 8.69311 7.07053 8.64933 7.1738 8.6177C7.20977 8.60668 7.24705 8.59566 7.28565 8.58464C7.34275 8.56832 7.39986 8.55199 7.45753 8.54128C7.53816 8.52632 7.62031 8.51815 7.70184 8.50935C7.70447 8.50906 7.7071 8.50879 7.7097 8.50852C7.83123 8.4962 7.97211 8.52022 8.06893 8.44575C8.10782 8.41797 8.12725 8.39035 8.12725 8.3348V8.30686C8.12725 8.19575 8.08846 8.08474 8.01346 8.00141C7.94123 7.91808 7.82735 7.89019 7.67735 7.89019C7.53372 7.89019 7.42086 7.91397 7.33443 7.98322C7.32001 7.99476 7.30539 8.0061 7.29039 8.01687C7.25997 8.03871 7.23316 8.06386 7.20984 8.09101C7.15239 8.15789 7.06281 8.2005 6.97978 8.17083C6.89045 8.13889 6.84319 8.0374 6.89419 7.95741C6.92895 7.9029 6.96809 7.85778 7.0113 7.82528C7.02871 7.81219 7.04636 7.79936 7.06306 7.78538C7.14834 7.71395 7.2424 7.66567 7.34112 7.64035C7.45223 7.61258 7.56068 7.61241 7.66623 7.61241C7.82445 7.61241 7.9924 7.62493 8.12935 7.70417C8.13981 7.71022 8.15024 7.71671 8.16062 7.72363C8.24395 7.77919 8.3134 7.86247 8.36895 7.9458C8.42451 8.05691 8.45223 8.1958 8.45223 8.36247V9.58887C8.45223 9.67861 8.37948 9.75136 8.28974 9.75136H8.26614C8.18943 9.75136 8.12725 9.68917 8.12725 9.61247V9.48485C8.12725 9.47862 8.12221 9.47358 8.11598 9.47358C8.11256 9.47358 8.10933 9.47511 8.10722 9.47781C8.08456 9.50674 8.04706 9.5596 7.99949 9.61247C7.88575 9.73219 7.71592 9.78956 7.5514 9.80384C7.52828 9.80585 7.50448 9.80697 7.48001 9.80697ZM7.53006 9.50125C7.5807 9.50125 7.62829 9.49692 7.67282 9.48996C7.79592 9.47073 7.91776 9.41557 7.99486 9.3177C8.04281 9.25683 8.08785 9.19433 8.10908 9.11979C8.12096 9.07808 8.12725 9.02937 8.12725 8.97363V8.77187C8.12725 8.72989 8.10449 8.71077 8.0636 8.72026C8.05039 8.72333 8.02953 8.72745 8.01714 8.73295C7.99481 8.74286 7.97125 8.74842 7.94617 8.755C7.89794 8.76765 7.84877 8.77913 7.79891 8.77913C7.79619 8.77913 7.79348 8.77913 7.79078 8.77913C7.73073 8.77913 7.67202 8.79821 7.61233 8.80479C7.59385 8.80682 7.57742 8.8068 7.56342 8.8068C7.47731 8.8068 7.39957 8.83464 7.32457 8.86241C7.25235 8.89019 7.19391 8.91808 7.14947 8.97363C7.10502 9.02919 7.08287 9.0848 7.08287 9.16813C7.08287 9.27924 7.12446 9.36241 7.20779 9.41797C7.29112 9.47352 7.3995 9.50125 7.53006 9.50125ZM9.83013 7.64035C9.90684 7.64035 9.96902 7.70254 9.96902 7.77924C9.96902 7.85595 9.90684 7.91813 9.83013 7.91813H9.00779C8.93108 7.91813 8.8689 7.85595 8.8689 7.77924C8.8689 7.70254 8.93108 7.64035 9.00779 7.64035H9.83013ZM9.19116 7.27496C9.19116 7.18522 9.26391 7.11247 9.35365 7.11247C9.44339 7.11247 9.51614 7.18522 9.51614 7.27496V9.14019C9.51614 9.20212 9.52383 9.26401 9.53804 9.31452C9.54714 9.34687 9.56401 9.37241 9.58989 9.39385C9.63205 9.42878 9.68965 9.44888 9.74224 9.46413C9.76011 9.46931 9.77823 9.47358 9.79677 9.47358C9.82526 9.47358 9.85026 9.47365 9.87046 9.46003C9.88135 9.45269 9.89732 9.44591 9.91045 9.44591C9.93078 9.44591 9.94431 9.46007 9.94864 9.47994L9.99211 9.67934C10.0002 9.71635 9.97593 9.75136 9.93804 9.75136C9.92632 9.75136 9.91107 9.75515 9.90055 9.76031C9.86219 9.77911 9.81748 9.77903 9.76625 9.77903C9.58106 9.77903 9.39266 9.69189 9.28538 9.54094C9.28264 9.53708 9.27994 9.53317 9.27729 9.52919C9.21896 9.44586 9.19116 9.36236 9.19116 9.22347V7.27496ZM11.3273 9.80697C11.1217 9.80697 10.9468 9.75141 10.7968 9.66808C10.6496 9.55697 10.5357 9.44575 10.4551 9.27908C10.3774 9.11241 10.3384 8.91808 10.3384 8.69586C10.3384 8.50141 10.3774 8.30697 10.4551 8.1403C10.6063 7.82749 10.9364 7.61428 11.2838 7.61244C11.2872 7.61242 11.2906 7.61241 11.294 7.61241C11.5155 7.61241 11.7461 7.67642 11.9071 7.82847C11.9092 7.83049 11.9113 7.83253 11.9135 7.83458C12.0024 7.91791 12.0745 8.02908 12.1245 8.16797C12.1773 8.30686 12.2051 8.47347 12.2051 8.66791C12.2051 8.74462 12.1429 8.8068 12.0662 8.8068H10.7078C10.6311 8.8068 10.5689 8.74462 10.5689 8.66791C10.5689 8.59121 10.6311 8.52903 10.7078 8.52903H11.5277C11.7177 8.52903 11.8959 8.36119 11.8022 8.19591C11.755 8.11258 11.6856 8.02903 11.5995 7.97347C11.5134 7.91791 11.4107 7.89019 11.294 7.89019C11.284 7.89019 11.2741 7.89035 11.2643 7.89069C11.0412 7.89841 10.8343 8.04961 10.7385 8.25125C10.6885 8.33458 10.6635 8.44586 10.6635 8.55697V8.75146C10.6635 8.91813 10.6912 9.05702 10.7467 9.16813C10.8023 9.27924 10.88 9.36241 10.98 9.41797C11.08 9.47352 11.1939 9.50125 11.3273 9.50125C11.4106 9.50125 11.4884 9.50136 11.5578 9.47358C11.6273 9.4458 11.6884 9.41791 11.7384 9.36236C11.7544 9.34459 11.7695 9.32684 11.7835 9.30819C11.8365 9.23768 11.9226 9.18591 12.0079 9.20834C12.0975 9.23189 12.1524 9.32688 12.107 9.40758C12.0839 9.44873 12.0569 9.48509 12.0259 9.51253C12.0126 9.52431 11.9989 9.53566 11.9863 9.54825C11.9552 9.57952 11.9219 9.61021 11.8862 9.63732C11.7832 9.7155 11.6562 9.75938 11.5297 9.78639C11.4654 9.80011 11.3977 9.80697 11.3273 9.80697ZM14.1326 7.64035C14.2472 7.64035 14.3266 7.75455 14.2868 7.86193L13.6432 9.59625C13.6087 9.68949 13.5197 9.75136 13.4203 9.75136C13.3209 9.75136 13.232 9.68961 13.1974 9.5965L12.5521 7.86351C12.5119 7.75542 12.5918 7.64035 12.7071 7.64035C12.7774 7.64035 12.8401 7.68478 12.8633 7.75113L13.4042 9.29651C13.4064 9.30281 13.4123 9.30702 13.419 9.30702C13.4257 9.30702 13.4316 9.30282 13.4338 9.29654L13.9776 7.75021C14.0007 7.68439 14.0629 7.64035 14.1326 7.64035ZM15.6134 9.80697C15.4106 9.80697 15.2329 9.75141 15.0857 9.66808C14.9384 9.55697 14.8246 9.44575 14.744 9.27908C14.6635 9.11241 14.6245 8.91808 14.6245 8.69586C14.6245 8.50141 14.6635 8.30697 14.744 8.1403C14.8246 7.97363 14.9356 7.83464 15.0773 7.7513C15.2217 7.64019 15.3884 7.61241 15.5801 7.61241C15.8034 7.61241 16.034 7.67893 16.198 7.83055C16.1995 7.83189 16.2009 7.83323 16.2023 7.83458C16.2912 7.91791 16.3606 8.02908 16.4134 8.16797C16.4662 8.30686 16.4912 8.47347 16.4912 8.66791C16.4912 8.74462 16.4291 8.8068 16.3524 8.8068H14.9967C14.92 8.8068 14.8578 8.74462 14.8578 8.66791C14.8578 8.59121 14.92 8.52903 14.9967 8.52903H15.816C16.0063 8.52903 16.1822 8.36147 16.0884 8.19591C16.0412 8.11258 15.9745 8.02903 15.8883 7.97347C15.7995 7.91791 15.6995 7.89019 15.5801 7.89019C15.5712 7.89019 15.5624 7.89032 15.5537 7.89059C15.3302 7.89744 15.1191 8.04736 15.0273 8.25125C14.9773 8.33458 14.9495 8.44586 14.9495 8.55697V8.75146C14.9495 8.91813 14.9774 9.05702 15.0329 9.16813C15.0912 9.27924 15.169 9.36241 15.2662 9.41797C15.3662 9.47352 15.4829 9.50125 15.6134 9.50125C15.6995 9.50125 15.7773 9.50136 15.8467 9.47358C15.9162 9.4458 15.9772 9.41791 16.0272 9.36236C16.044 9.34368 16.0596 9.32503 16.0739 9.30532C16.125 9.23498 16.2095 9.1855 16.2935 9.2078C16.3834 9.23166 16.4385 9.32714 16.3929 9.40817C16.3703 9.44828 16.3439 9.48381 16.3138 9.51093C16.2994 9.52389 16.2846 9.5364 16.2711 9.55025C16.238 9.58415 16.2016 9.61729 16.1622 9.64584C16.0659 9.71574 15.9495 9.75559 15.8336 9.78271C15.7645 9.79889 15.6914 9.80697 15.6134 9.80697ZM17.151 9.75136C17.0612 9.75136 16.9885 9.67861 16.9885 9.58887V7.79728C16.9885 7.71061 17.0587 7.64035 17.1454 7.64035H17.1496C17.234 7.64035 17.3023 7.70873 17.3023 7.79308V7.93279C17.3023 7.93998 17.3082 7.9458 17.3153 7.9458C17.3209 7.9458 17.3258 7.94229 17.3277 7.93711C17.3671 7.83033 17.4355 7.74979 17.5356 7.69569C17.6356 7.64014 17.7495 7.58474 17.8773 7.58474C17.8967 7.58474 17.9179 7.58474 17.9433 7.58474C17.9581 7.58474 17.9722 7.59014 17.9851 7.59736C17.9892 7.59964 17.9931 7.60157 17.9969 7.60321C18.0243 7.61494 18.0495 7.63652 18.0495 7.66625V7.85697C18.0495 7.8758 17.9905 7.91813 17.9717 7.91813C17.9328 7.91813 17.8939 7.91813 17.8495 7.91813C17.8038 7.91813 17.7604 7.92357 17.7191 7.93205C17.6213 7.95216 17.523 8.00463 17.4493 8.072C17.3981 8.11882 17.3621 8.16945 17.3402 8.23531C17.3222 8.2899 17.3134 8.34855 17.3134 8.41808V9.58887C17.3134 9.67861 17.2407 9.75136 17.151 9.75136Z" fill="black"/>
</g>
</svg>
