<svg width="27" height="27" viewBox="0 0 27 27" fill="none" xmlns="http://www.w3.org/2000/svg">
<path d="M4.65545 18.1082L8.63343 13.1958C8.93564 12.8227 9.37372 12.5848 9.85131 12.5346C10.3289 12.4844 10.8069 12.626 11.18 12.9282L15.5429 16.4612M15.5429 16.4612L17.1915 17.7962M15.5429 16.4612L17.296 14.2964C17.5981 13.9232 18.0362 13.6853 18.5138 13.6351C18.9914 13.585 19.4694 13.7266 19.8425 14.0287L22.5568 16.2267" stroke="#F3785D" stroke-width="1.5" stroke-linecap="round" stroke-linejoin="round"/>
<path d="M16.2522 8.84547C16.5268 8.81661 16.726 8.57057 16.6972 8.29595C16.6683 8.02132 16.4222 7.82209 16.1477 7.85095M16.2522 8.84547C15.9776 8.87433 15.7315 8.6751 15.7027 8.40048C15.6738 8.12585 15.8731 7.87981 16.1477 7.85095M16.2522 8.84547L16.1477 7.85095" stroke="#F3785D" stroke-width="1.5" stroke-linecap="round" stroke-linejoin="round"/>
<path d="M5.74228 21.7608C4.40426 20.4911 4.18319 18.3878 3.74107 14.1813C3.29894 9.97469 3.07788 7.87141 4.12267 6.35123C4.27103 6.13536 4.43612 5.93148 4.61643 5.74149C5.88616 4.40346 7.98945 4.1824 12.196 3.74027C16.4025 3.29815 18.5058 3.07708 20.026 4.12188C20.2419 4.27023 20.4458 4.43533 20.6357 4.61563C21.9738 5.88537 22.1949 7.98865 22.637 12.1952C23.0791 16.4017 23.3002 18.5051 22.2553 20.0252C22.107 20.2411 21.9419 20.445 21.7616 20.6349C20.4919 21.973 18.3886 22.1941 14.182 22.6362C9.97549 23.0783 7.8722 23.2994 6.35202 22.2546C6.13615 22.1062 5.93228 21.9411 5.74228 21.7608Z" stroke="#F3785D" stroke-width="1.5" stroke-linecap="round" stroke-linejoin="round"/>
</svg>
