<svg width="27" height="27" viewBox="0 0 27 27" fill="none" xmlns="http://www.w3.org/2000/svg">
<path d="M20.5183 19.9922L21.7726 8.05798M6.38592 20.5179L18.3202 21.7722M19.9926 5.85988L8.05838 4.60554M5.86028 6.38553L4.60594 18.3198" stroke="#8E79FF" stroke-width="1.5" stroke-linecap="round" stroke-linejoin="round"/>
<path d="M9.41957 10.7812C9.29127 9.19031 10.3534 8.92809 13.5643 9.20577M13.5643 9.20577C16.5379 9.58602 17.7415 9.95183 17.291 11.6085M13.5643 9.20577L12.7281 17.1619M11.2522 17.0068L14.2041 17.3171" stroke="#8E79FF" stroke-width="1.5" stroke-linecap="round" stroke-linejoin="round"/>
<path d="M23.1838 4.18468L21.1947 3.97562C20.6454 3.91789 20.1534 4.31636 20.0957 4.86562L19.8866 6.85466C19.8289 7.40391 20.2273 7.89598 20.7766 7.95371L22.7656 8.16277C23.3149 8.2205 23.807 7.82203 23.8647 7.27277L24.0738 5.28373C24.1315 4.73447 23.733 4.24241 23.1838 4.18468Z" stroke="#8E79FF" stroke-width="1.5"/>
<path d="M7.27165 2.51085L5.28261 2.30179C4.73335 2.24407 4.24129 2.64253 4.18356 3.19179L3.9745 5.18083C3.91677 5.73009 4.31524 6.22215 4.86449 6.27988L6.85354 6.48894C7.40279 6.54667 7.89486 6.1482 7.95259 5.59895L8.16165 3.6099C8.21937 3.06065 7.82091 2.56858 7.27165 2.51085Z" stroke="#8E79FF" stroke-width="1.5"/>
<path d="M21.5119 20.0968L19.5228 19.8877C18.9736 19.83 18.4815 20.2285 18.4238 20.7777L18.2147 22.7668C18.157 23.316 18.5555 23.8081 19.1047 23.8658L21.0938 24.0749C21.643 24.1326 22.1351 23.7342 22.1928 23.1849L22.4019 21.1958C22.4596 20.6466 22.0612 20.1545 21.5119 20.0968Z" stroke="#8E79FF" stroke-width="1.5"/>
<path d="M5.59978 18.4249L3.61073 18.2159C3.06148 18.1581 2.56941 18.5566 2.51168 19.1059L2.30263 21.0949C2.24489 21.6442 2.64336 22.1362 3.19262 22.1939L5.18166 22.403C5.73092 22.4607 6.22298 22.0623 6.28071 21.513L6.48977 19.524C6.5475 18.9747 6.14903 18.4826 5.59978 18.4249Z" stroke="#8E79FF" stroke-width="1.5"/>
</svg>
