<svg width="32" height="4" viewBox="0 0 32 4" fill="none" xmlns="http://www.w3.org/2000/svg">
<path d="M2.49729 1.4445C2.49729 1.75005 2.44449 2 2.33615 2.22222C2.22782 2.44444 2.08057 2.61106 1.89168 2.72217C1.70557 2.83328 1.48889 2.88873 1.25 2.88873C1.00833 2.88873 0.794493 2.83328 0.605604 2.72217C0.416716 2.61106 0.269466 2.44444 0.161133 2.22222C0.0555773 2 0 1.75005 0 1.4445C0 1.13894 0.0555773 0.888726 0.161133 0.666504C0.269466 0.444282 0.416716 0.277669 0.605604 0.166558C0.794493 0.055447 1.00833 0 1.25 0C1.48889 0 1.70557 0.055447 1.89168 0.166558C2.08057 0.277669 2.22782 0.444282 2.33615 0.666504C2.44449 0.888726 2.49729 1.13894 2.49729 1.4445ZM2.16661 1.4445C2.16661 1.1945 2.12496 1 2.04441 0.833333C1.96107 0.666667 1.85276 0.527669 1.71387 0.444336C1.57498 0.361003 1.41944 0.305447 1.25 0.305447C1.07778 0.305447 0.922173 0.361003 0.783285 0.444336C0.644396 0.527669 0.536079 0.666667 0.452745 0.833333C0.37219 1 0.333388 1.1945 0.333388 1.4445C0.333388 1.6945 0.37219 1.88873 0.452745 2.05539C0.536079 2.22206 0.644396 2.36106 0.783285 2.44439C0.922173 2.52772 1.07778 2.58328 1.25 2.58328C1.41944 2.58328 1.57498 2.52772 1.71387 2.44439C1.85276 2.36106 1.96107 2.22206 2.04441 2.05539C2.12496 1.88873 2.16661 1.6945 2.16661 1.4445ZM3.19166 3.66672C3.10114 3.66672 3.02775 3.59333 3.02775 3.50281V0.908407C3.02775 0.820951 3.09865 0.750054 3.1861 0.750054C3.27356 0.750054 3.34446 0.820951 3.34446 0.908407V1.05996C3.34446 1.07278 3.35485 1.08317 3.36767 1.08317C3.37716 1.08317 3.3856 1.07734 3.38967 1.06877C3.41171 1.02237 3.44291 0.994823 3.48334 0.944282C3.52501 0.888726 3.58617 0.833279 3.66672 0.777724C3.74728 0.722168 3.85837 0.722114 3.99726 0.722114C4.32436 0.722114 4.64095 0.912132 4.77979 1.20831C4.78192 1.21285 4.78402 1.21743 4.78611 1.22206C4.86388 1.38873 4.90275 1.58333 4.90275 1.80556C4.90275 2.02778 4.86388 2.22211 4.78611 2.38878C4.71111 2.55545 4.60551 2.69444 4.4694 2.77778C4.33329 2.86111 4.17775 2.91667 3.99997 2.91667C3.86386 2.91667 3.75555 2.88894 3.67499 2.83339C3.59974 2.78322 3.54031 2.7557 3.49881 2.70993C3.48985 2.70006 3.48298 2.68852 3.47637 2.67694C3.43913 2.61172 3.40847 2.58316 3.3878 2.53799C3.38498 2.53182 3.37894 2.52767 3.37216 2.52767C3.363 2.52767 3.35558 2.53509 3.35558 2.54425V3.50281C3.35558 3.59333 3.28219 3.66672 3.19166 3.66672ZM3.35002 1.80556C3.35002 1.97222 3.37224 2.11111 3.41946 2.22222C3.51068 2.43686 3.71554 2.60843 3.94874 2.6109C3.95193 2.61093 3.95513 2.61095 3.95833 2.61095C3.96265 2.61095 3.96695 2.61092 3.97123 2.61086C4.20575 2.60776 4.41387 2.43808 4.50562 2.22222C4.55284 2.08333 4.57506 1.94444 4.57506 1.80556C4.57506 1.63889 4.55284 1.52778 4.50562 1.38889C4.46117 1.27778 4.39444 1.19444 4.29999 1.11111C4.21111 1.02778 4.09444 0.999892 3.95833 0.999892C3.95377 0.999892 3.94923 0.999924 3.94472 0.999991C3.71238 1.00341 3.50576 1.17315 3.41946 1.38889C3.37224 1.5 3.35002 1.63889 3.35002 1.80556ZM6.28893 2.91667C6.08337 2.91667 5.90833 2.86111 5.75833 2.77778C5.61111 2.66667 5.49716 2.55545 5.41938 2.38878C5.33882 2.22211 5.30002 2.02778 5.30002 1.80556C5.30002 1.61111 5.33882 1.41667 5.41938 1.25C5.49716 1.08333 5.6111 0.944336 5.75277 0.861003C5.89721 0.749892 6.06389 0.722114 6.25556 0.722114C6.47896 0.722114 6.70953 0.788808 6.87359 0.940441C6.87496 0.941714 6.87634 0.942995 6.87771 0.944282C6.96382 1.02762 7.03612 1.13878 7.08889 1.27767C7.14167 1.41656 7.16661 1.58317 7.16661 1.77762C7.16661 1.85432 7.10443 1.9165 7.02772 1.9165H5.66949C5.59278 1.9165 5.5306 1.85432 5.5306 1.77762C5.5306 1.70091 5.59278 1.63873 5.66949 1.63873H6.49151C6.68181 1.63873 6.85774 1.47117 6.76392 1.30561C6.71669 1.22228 6.65003 1.13873 6.56114 1.08317C6.47503 1.02762 6.37223 0.999892 6.25556 0.999892C6.2472 0.999892 6.23892 1.00001 6.23072 1.00024C6.00621 1.0067 5.79637 1.15807 5.70001 1.36095C5.65001 1.44428 5.625 1.55556 5.625 1.66667V1.86117C5.625 2.02783 5.65272 2.16672 5.70828 2.27783C5.76383 2.38894 5.8417 2.47211 5.9417 2.52767C6.04171 2.58323 6.15559 2.61095 6.28893 2.61095C6.37504 2.61095 6.45006 2.61106 6.5195 2.58328C6.58895 2.5555 6.65003 2.52762 6.70003 2.47206C6.71785 2.4533 6.73408 2.43457 6.74883 2.41477C6.80079 2.34502 6.88488 2.2952 6.96896 2.3175C7.0589 2.34136 7.11405 2.43689 7.06834 2.51794C7.04574 2.55802 7.0194 2.59353 6.98934 2.62063C6.97495 2.63359 6.96012 2.6461 6.94659 2.65994C6.91465 2.69263 6.87968 2.72459 6.84169 2.75242C6.74164 2.82572 6.62009 2.86737 6.49905 2.89439C6.4325 2.90925 6.36222 2.91667 6.28893 2.91667ZM7.98882 1.58339V2.69721C7.98882 2.7877 7.91547 2.86106 7.82498 2.86106C7.73449 2.86106 7.66113 2.7877 7.66113 2.69721V0.908407C7.66113 0.820951 7.73203 0.750054 7.81949 0.750054C7.90694 0.750054 7.97784 0.820951 7.97784 0.908407V1.06637C7.97784 1.07565 7.98536 1.08317 7.99464 1.08317C8.00125 1.08317 8.00723 1.07928 8.01005 1.0733C8.05352 0.980869 8.11483 0.907648 8.19394 0.83692C8.21789 0.815517 8.24449 0.797108 8.27394 0.784297C8.36929 0.742818 8.4854 0.722114 8.62223 0.722114C8.76668 0.722114 8.89164 0.749837 8.99997 0.805393C9.10831 0.860948 9.19168 0.94439 9.25279 1.0555C9.31113 1.19439 9.34163 1.33317 9.34163 1.49984V2.69857C9.34163 2.78831 9.26889 2.86106 9.17915 2.86106C9.08941 2.86106 9.01666 2.78831 9.01666 2.69857V1.52778C9.01666 1.5185 9.01652 1.5094 9.01624 1.50045C9.00824 1.2398 8.79132 0.999892 8.53055 0.999892C8.52442 0.999892 8.51835 0.999985 8.51232 1.00017C8.32728 1.00589 8.14954 1.1166 8.05827 1.27767C8.01105 1.361 7.98882 1.47228 7.98882 1.58339ZM11.6555 2.91667C11.5194 2.91667 11.4 2.88894 11.2889 2.83339C11.1806 2.77783 11.0917 2.72206 11.0278 2.61095C10.9639 2.52762 10.9306 2.38878 10.9306 2.24989C10.9306 2.1876 10.9384 2.12531 10.9536 2.07281C10.9745 2.00072 11.0179 1.9367 11.0691 1.8818C11.1428 1.80281 11.2459 1.75903 11.3492 1.7274C11.3852 1.71638 11.4225 1.70536 11.461 1.69434C11.5181 1.67803 11.5752 1.6617 11.6329 1.65099C11.7135 1.63602 11.7957 1.62784 11.8773 1.61905C11.88 1.61876 11.8826 1.61848 11.8852 1.61821C12.0068 1.60591 12.1476 1.62992 12.2445 1.55545C12.2834 1.52767 12.3028 1.50005 12.3028 1.4445V1.41656C12.3028 1.30545 12.2639 1.19444 12.1889 1.11111C12.1166 1.02778 12.0028 0.999892 11.8528 0.999892C11.7091 0.999892 11.5963 1.02367 11.5098 1.09292C11.4954 1.10446 11.4808 1.11581 11.4658 1.12657C11.4354 1.14841 11.4086 1.17356 11.3852 1.20071C11.3278 1.26759 11.2382 1.3102 11.1552 1.28053C11.0659 1.24859 11.0186 1.1471 11.0696 1.06713C11.1044 1.01262 11.1436 0.967488 11.1868 0.934983C11.2042 0.92189 11.2219 0.909061 11.2386 0.895074C11.3239 0.823651 11.4179 0.775366 11.5167 0.750054C11.6278 0.722277 11.7361 0.722114 11.8416 0.722114C11.9999 0.722114 12.168 0.734621 12.305 0.813936C12.3154 0.819973 12.3258 0.826439 12.3362 0.833333C12.4195 0.888889 12.4889 0.972168 12.5445 1.0555C12.6 1.16661 12.6278 1.3055 12.6278 1.47217V2.69857C12.6278 2.78831 12.555 2.86106 12.4653 2.86106H12.4417C12.365 2.86106 12.3028 2.79887 12.3028 2.72217V2.59455C12.3028 2.58832 12.2977 2.58328 12.2915 2.58328C12.2881 2.58328 12.2849 2.58481 12.2828 2.58751C12.2601 2.61644 12.2226 2.6693 12.175 2.72217C12.0612 2.84195 11.8913 2.89931 11.7267 2.91356C11.7037 2.91556 11.6799 2.91667 11.6555 2.91667ZM11.7056 2.61095C11.7562 2.61095 11.8038 2.60662 11.8484 2.59966C11.9715 2.58043 12.0933 2.52527 12.1704 2.4274C12.2184 2.36653 12.2634 2.30403 12.2846 2.22949C12.2965 2.18778 12.3028 2.13907 12.3028 2.08333V1.88157C12.3028 1.83959 12.28 1.82047 12.2391 1.82997C12.2259 1.83303 12.2051 1.83716 12.1927 1.84265C12.1703 1.85255 12.1467 1.85812 12.1216 1.8647C12.0734 1.87734 12.0242 1.88883 11.9743 1.88883C11.9716 1.88883 11.9689 1.88883 11.9662 1.88883C11.9062 1.88883 11.8476 1.90788 11.7879 1.91447C11.7694 1.91652 11.7529 1.9165 11.7388 1.9165C11.6527 1.9165 11.575 1.94434 11.5 1.97211C11.4278 1.99989 11.3695 2.02778 11.325 2.08333C11.2806 2.13889 11.2583 2.1945 11.2583 2.27783C11.2583 2.38894 11.3 2.47211 11.3833 2.52767C11.4667 2.58323 11.575 2.61095 11.7056 2.61095ZM13.5472 1.58339V2.69857C13.5472 2.78831 13.4745 2.86106 13.3847 2.86106C13.295 2.86106 13.2222 2.78831 13.2222 2.69857V0.906983C13.2222 0.820314 13.2925 0.750054 13.3792 0.750054C13.4658 0.750054 13.5361 0.820313 13.5361 0.906982V1.06628C13.5361 1.07561 13.5437 1.08317 13.553 1.08317C13.5596 1.08317 13.5656 1.07926 13.5685 1.07325C13.6127 0.979177 13.6755 0.905002 13.7585 0.833098C13.7802 0.814303 13.804 0.79787 13.8302 0.786035C13.9245 0.743396 14.0422 0.722114 14.1834 0.722114C14.3278 0.722114 14.4528 0.749837 14.5611 0.805393C14.6694 0.860948 14.7527 0.94439 14.8111 1.0555C14.8722 1.19439 14.9028 1.33317 14.9028 1.49984V2.69721C14.9028 2.7877 14.8294 2.86106 14.7389 2.86106C14.6484 2.86106 14.5751 2.7877 14.5751 2.69721V1.52778C14.5751 1.51957 14.575 1.51149 14.5748 1.50355C14.5681 1.24142 14.3512 0.999892 14.0889 0.999892C14.0837 0.999892 14.0785 0.999964 14.0732 1.00011C13.8883 1.00525 13.7106 1.11669 13.6194 1.27767C13.5722 1.361 13.5472 1.47228 13.5472 1.58339ZM16.2972 2.91667C16.1222 2.91667 15.9667 2.86111 15.8306 2.77778C15.6945 2.69444 15.5888 2.55545 15.5111 2.38878C15.4361 2.22211 15.3973 2.02778 15.3973 1.80556C15.3973 1.58333 15.4361 1.38873 15.5111 1.22206C15.5888 1.05539 15.6945 0.944444 15.8306 0.833333C15.9667 0.75 16.125 0.722114 16.3028 0.722114C16.4417 0.722114 16.55 0.722168 16.6306 0.777724C16.7111 0.833279 16.775 0.888726 16.8167 0.944282C16.8558 0.996447 16.8875 1.02412 16.912 1.0733C16.9149 1.07925 16.9209 1.08317 16.9276 1.08317C16.9369 1.08317 16.9444 1.07561 16.9444 1.06628V0.190158C16.9444 0.100418 17.0172 0.0276693 17.1069 0.0276693C17.1967 0.0276693 17.2694 0.100418 17.2694 0.190158V2.70413C17.2694 2.7908 17.1992 2.86106 17.1125 2.86106C17.0258 2.86106 16.9556 2.7908 16.9556 2.70413V2.55131C16.9556 2.53825 16.945 2.52767 16.9319 2.52767C16.9226 2.52767 16.9143 2.53317 16.91 2.54145C16.8882 2.58374 16.8607 2.61218 16.8257 2.67298C16.8176 2.68716 16.809 2.70119 16.7976 2.71293C16.7548 2.75693 16.6986 2.78432 16.625 2.83339C16.5445 2.88894 16.4333 2.91667 16.2972 2.91667ZM16.3417 2.61095C16.3448 2.61095 16.348 2.61093 16.3511 2.6109C16.5843 2.60848 16.7893 2.43691 16.8806 2.22222C16.9278 2.11111 16.95 1.97222 16.95 1.80556C16.95 1.63889 16.9278 1.5 16.8806 1.38889C16.7943 1.17315 16.5876 1.00341 16.3553 0.999991C16.3508 0.999924 16.3463 0.999892 16.3417 0.999892C16.2056 0.999892 16.0888 1.02778 15.9972 1.11111C15.9055 1.19444 15.8361 1.27778 15.7917 1.38889C15.7473 1.52778 15.725 1.63889 15.725 1.80556C15.725 1.94444 15.7473 2.08333 15.7917 2.22222C15.8834 2.43803 16.0917 2.60705 16.3261 2.61082C16.3313 2.61091 16.3365 2.61095 16.3417 2.61095ZM20.3417 2.00005V0.913967C20.3417 0.823441 20.415 0.750054 20.5056 0.750054C20.5961 0.750054 20.6695 0.823441 20.6695 0.913968V2.69714C20.6695 2.78767 20.5961 2.86106 20.5056 2.86106C20.415 2.86106 20.3417 2.78767 20.3417 2.69714V2.51178C20.3417 2.50527 20.3364 2.5 20.3299 2.5C20.3252 2.5 20.321 2.50273 20.3191 2.50693C20.269 2.6146 20.1922 2.69619 20.0888 2.77778C19.9833 2.86111 19.8528 2.88873 19.6917 2.88873C19.5584 2.88873 19.4417 2.861 19.3389 2.80545C19.2334 2.74989 19.1528 2.66656 19.0945 2.52767C19.0362 2.41656 19.0055 2.27778 19.0055 2.08333V0.913968C19.0055 0.823441 19.0789 0.750054 19.1694 0.750054C19.26 0.750054 19.3334 0.823441 19.3334 0.913968V2.05539C19.3334 2.07094 19.3337 2.086 19.3345 2.10063C19.3468 2.34849 19.5491 2.58328 19.7972 2.58328C19.9729 2.58328 20.15 2.48539 20.2502 2.34103C20.252 2.33844 20.2538 2.33582 20.2555 2.33317C20.3139 2.22206 20.3417 2.13894 20.3417 2.00005ZM21.4292 3.66672C21.3394 3.66672 21.2667 3.59397 21.2667 3.50423V0.906983C21.2667 0.820314 21.3369 0.750054 21.4236 0.750054C21.5103 0.750054 21.5805 0.820313 21.5805 0.906982V1.05953C21.5805 1.07259 21.5911 1.08317 21.6042 1.08317C21.6135 1.08317 21.6218 1.07766 21.6261 1.0694C21.6503 1.02262 21.6814 0.995052 21.7194 0.944282C21.7611 0.888726 21.825 0.833279 21.9028 0.777724C21.9861 0.722168 22.0945 0.722114 22.2333 0.722114C22.4111 0.722114 22.5695 0.75 22.7056 0.833333C22.8417 0.944444 22.9473 1.05539 23.025 1.22206C23.1 1.38873 23.1388 1.58333 23.1388 1.80556C23.1388 2.02778 23.1 2.22211 23.025 2.38878C22.9473 2.55545 22.8417 2.69444 22.7056 2.77778C22.5723 2.86111 22.4139 2.91667 22.2389 2.91667C22.1028 2.91667 21.9916 2.88894 21.9111 2.83339C21.8375 2.78432 21.7813 2.75693 21.7385 2.71293C21.7271 2.70119 21.7185 2.68716 21.7104 2.67298C21.6744 2.61033 21.6462 2.58204 21.6241 2.53754C21.6212 2.53159 21.6152 2.52767 21.6085 2.52767C21.5992 2.52767 21.5917 2.53523 21.5917 2.54456V3.50423C21.5917 3.59397 21.5189 3.66672 21.4292 3.66672ZM21.5861 1.80556C21.5861 1.97222 21.6111 2.11111 21.6555 2.22222C21.7468 2.43691 21.9518 2.60848 22.185 2.6109C22.1882 2.61093 22.1913 2.61095 22.1944 2.61095C22.2001 2.61095 22.2057 2.6109 22.2113 2.6108C22.4449 2.60672 22.6549 2.43914 22.7417 2.22222C22.7889 2.08333 22.8139 1.94444 22.8139 1.80556C22.8139 1.63889 22.7889 1.52778 22.7444 1.38889C22.6972 1.27778 22.6306 1.19444 22.5389 1.11111C22.4473 1.02778 22.3333 0.999892 22.1944 0.999892C22.1913 0.999892 22.1883 0.999906 22.1852 0.999936C21.9517 1.00223 21.7423 1.17205 21.6555 1.38889C21.6083 1.5 21.5861 1.63889 21.5861 1.80556ZM23.8375 2.86106C23.7508 2.86106 23.6806 2.7908 23.6806 2.70413V0.190158C23.6806 0.100418 23.7533 0.0276693 23.843 0.0276693C23.9328 0.0276693 24.0055 0.100418 24.0055 0.190158V1.06628C24.0055 1.07561 24.0131 1.08317 24.0224 1.08317C24.0291 1.08317 24.0351 1.07925 24.038 1.0733C24.0624 1.02412 24.0942 0.996447 24.1333 0.944282C24.175 0.888726 24.2389 0.833279 24.3167 0.777724C24.4 0.722168 24.5083 0.722114 24.6472 0.722114C24.825 0.722114 24.9834 0.75 25.1195 0.833333C25.2556 0.944444 25.3611 1.05539 25.4389 1.22206C25.5139 1.38873 25.5528 1.58333 25.5528 1.80556C25.5528 2.02778 25.5139 2.22211 25.4389 2.38878C25.3611 2.55545 25.2556 2.69444 25.1195 2.77778C24.9862 2.86111 24.8278 2.91667 24.6528 2.91667C24.5167 2.91667 24.4055 2.88894 24.325 2.83339C24.2514 2.78432 24.1952 2.75693 24.1524 2.71293C24.141 2.70119 24.1324 2.68716 24.1242 2.67298C24.0893 2.61218 24.0617 2.58374 24.04 2.54145C24.0357 2.53317 24.0274 2.52767 24.0181 2.52767C24.005 2.52767 23.9944 2.53825 23.9944 2.55131V2.70413C23.9944 2.7908 23.9242 2.86106 23.8375 2.86106ZM24 1.80556C24 1.97222 24.025 2.11111 24.0694 2.22222C24.1611 2.43794 24.3688 2.60962 24.6032 2.61093C24.6049 2.61094 24.6066 2.61095 24.6083 2.61095C24.614 2.61095 24.6196 2.6109 24.6252 2.6108C24.8587 2.60672 25.0688 2.43914 25.1556 2.22222C25.2028 2.08333 25.2277 1.94444 25.2277 1.80556C25.2277 1.63889 25.2027 1.52778 25.1583 1.38889C25.1111 1.27778 25.0445 1.19444 24.9528 1.11111C24.8611 1.02778 24.7472 0.999892 24.6083 0.999892C24.6051 0.999892 24.602 0.999907 24.5988 0.999939C24.3655 1.00231 24.1607 1.17414 24.0694 1.38889C24.0222 1.5 24 1.63889 24 1.80556ZM26.9417 2.91667C26.7362 2.91667 26.5611 2.86111 26.4111 2.77778C26.2639 2.66667 26.15 2.55545 26.0695 2.38878C25.9917 2.22211 25.9528 2.02778 25.9528 1.80556C25.9528 1.61111 25.9917 1.41667 26.0695 1.25C26.2207 0.937191 26.5507 0.723978 26.8981 0.722141C26.9015 0.722123 26.9049 0.722114 26.9084 0.722114C27.1298 0.722114 27.3604 0.786122 27.5214 0.938174C27.5236 0.940193 27.5257 0.942229 27.5278 0.944282C27.6167 1.02762 27.6889 1.13878 27.7389 1.27767C27.7916 1.41656 27.8194 1.58317 27.8194 1.77762C27.8194 1.85432 27.7572 1.9165 27.6805 1.9165H26.3222C26.2455 1.9165 26.1833 1.85432 26.1833 1.77762C26.1833 1.70091 26.2455 1.63873 26.3222 1.63873H27.1422C27.3322 1.63873 27.5104 1.47089 27.4167 1.30561C27.3695 1.22228 27.3001 1.13873 27.2139 1.08317C27.1278 1.02762 27.025 0.999892 26.9084 0.999892C26.8985 0.999892 26.8887 1.00005 26.879 1.00038C26.6557 1.00802 26.4445 1.15718 26.3528 1.36095C26.3028 1.44428 26.2778 1.55556 26.2778 1.66667V1.86117C26.2778 2.02783 26.3055 2.16672 26.3611 2.27783C26.4166 2.38894 26.4945 2.47211 26.5945 2.52767C26.6945 2.58323 26.8084 2.61095 26.9417 2.61095C27.0251 2.61095 27.1027 2.61106 27.1722 2.58328C27.2416 2.5555 27.3028 2.52762 27.3528 2.47206C27.3688 2.45428 27.384 2.43652 27.398 2.41785C27.451 2.34737 27.5371 2.29562 27.6224 2.31805C27.7118 2.34159 27.7668 2.43654 27.7215 2.51723C27.6984 2.5584 27.6713 2.59478 27.6403 2.62223C27.627 2.63401 27.6133 2.64536 27.6008 2.65794C27.5696 2.68922 27.5364 2.71991 27.5006 2.74702C27.3975 2.82519 27.2705 2.8691 27.144 2.89611C27.0798 2.90982 27.0121 2.91667 26.9417 2.91667ZM28.9389 2.91667C28.8056 2.91667 28.6833 2.88894 28.5722 2.83339C28.4639 2.77783 28.375 2.72206 28.3111 2.61095C28.2472 2.52762 28.2138 2.38878 28.2138 2.24989C28.2138 2.18248 28.2231 2.11506 28.2409 2.06005C28.2613 1.99704 28.3016 1.94056 28.3458 1.89126C28.4236 1.80457 28.5335 1.7575 28.6449 1.72364C28.6771 1.71388 28.7102 1.70411 28.7444 1.69434C28.8015 1.67802 28.8587 1.66169 28.9163 1.65098C28.997 1.63602 29.0791 1.62785 29.1606 1.61905C29.1633 1.61876 29.1659 1.61849 29.1685 1.61822C29.29 1.6059 29.4309 1.62992 29.5277 1.55545C29.5666 1.52767 29.586 1.50005 29.586 1.4445V1.41656C29.586 1.30545 29.5473 1.19444 29.4722 1.11111C29.4 1.02778 29.2889 0.999892 29.1389 0.999892C28.9952 0.999892 28.88 1.02367 28.7932 1.09294C28.7788 1.10446 28.7642 1.11581 28.7492 1.12657C28.7188 1.14841 28.692 1.17356 28.6686 1.20071C28.6112 1.26759 28.5216 1.3102 28.4386 1.28053C28.3492 1.24859 28.302 1.1471 28.353 1.06711C28.3877 1.0126 28.4269 0.967482 28.4701 0.934981C28.4875 0.921889 28.5052 0.909062 28.5219 0.895079C28.6072 0.823653 28.7013 0.775366 28.8001 0.750054C28.9112 0.722277 29.0194 0.722114 29.1277 0.722114C29.2843 0.722114 29.4502 0.734841 29.586 0.812643C29.5972 0.819047 29.6083 0.825944 29.6194 0.833333C29.7027 0.888889 29.7722 0.972168 29.8277 1.0555C29.8833 1.16661 29.9112 1.3055 29.9112 1.47217V2.6985C29.9112 2.78828 29.8384 2.86106 29.7486 2.86106H29.7249C29.6482 2.86106 29.586 2.79887 29.586 2.72217V2.59446C29.586 2.58828 29.581 2.58328 29.5749 2.58328C29.5715 2.58328 29.5683 2.5848 29.5662 2.58747C29.5435 2.6164 29.5059 2.66928 29.4583 2.72217C29.3445 2.84189 29.1747 2.89929 29.0102 2.91355C28.9871 2.91556 28.9634 2.91667 28.9389 2.91667ZM28.9889 2.61095C29.0436 2.61095 29.0947 2.6059 29.1423 2.59794C29.2581 2.57857 29.3736 2.52673 29.448 2.43592C29.5018 2.37035 29.5498 2.30101 29.5707 2.21884C29.5808 2.17955 29.586 2.13439 29.586 2.08333V1.88147C29.586 1.83955 29.5634 1.82047 29.5225 1.82997C29.5093 1.83303 29.4885 1.83715 29.4761 1.84264C29.4537 1.85255 29.4301 1.85812 29.405 1.8647C29.3568 1.87734 29.3075 1.88883 29.2576 1.88883C29.255 1.88883 29.2523 1.88883 29.2496 1.88883C29.1896 1.88883 29.131 1.90788 29.0713 1.91447C29.0528 1.91652 29.0363 1.9165 29.0222 1.9165C28.9361 1.9165 28.8584 1.94434 28.7834 1.97211C28.7111 1.99989 28.6528 2.02778 28.6084 2.08333C28.564 2.13889 28.5417 2.1945 28.5417 2.27783C28.5417 2.38894 28.5834 2.47211 28.6667 2.52767C28.7501 2.58323 28.8583 2.61095 28.9889 2.61095ZM31.2889 0.750054C31.3656 0.750054 31.4278 0.812237 31.4278 0.888943C31.4278 0.965649 31.3656 1.02783 31.2889 1.02783H30.4667C30.39 1.02783 30.3278 0.965649 30.3278 0.888943C30.3278 0.812237 30.39 0.750054 30.4667 0.750054H31.2889ZM30.65 0.384657C30.65 0.294917 30.7227 0.222168 30.8124 0.222168C30.9022 0.222168 30.9749 0.294917 30.9749 0.384657V2.24989C30.9749 2.31594 30.9837 2.38195 31.0012 2.43415C31.0098 2.45995 31.0226 2.47976 31.0429 2.49786C31.0875 2.53762 31.1507 2.56035 31.2085 2.57574C31.2246 2.58002 31.2411 2.58328 31.2583 2.58328C31.2846 2.58328 31.3091 2.58335 31.3293 2.56974C31.3401 2.56238 31.3561 2.55561 31.3692 2.55561C31.3896 2.55561 31.4031 2.56977 31.4074 2.58964L31.4511 2.78996C31.4591 2.8265 31.4353 2.86106 31.3979 2.86106C31.3857 2.86106 31.3699 2.86527 31.3589 2.87067C31.3221 2.88881 31.2757 2.88873 31.225 2.88873C31.0399 2.88873 30.8544 2.79939 30.7444 2.65048C30.7416 2.64668 30.7388 2.64281 30.7361 2.63889C30.6778 2.55556 30.65 2.47206 30.65 2.33317V0.384657Z" fill="black"/>
</svg>
