<svg width="18" height="5" viewBox="0 0 18 5" fill="none" xmlns="http://www.w3.org/2000/svg">
<path d="M1.61678 0.493232C1.61678 0.312965 1.76292 0.166829 1.94318 0.166829C2.12345 0.166829 2.26959 0.312965 2.26959 0.493232V2.72217C2.26681 2.97217 2.21957 3.16667 2.11957 3.33333C2.02235 3.5 1.88347 3.639 1.70847 3.72233C1.53347 3.80566 1.32792 3.86122 1.09459 3.86122C1.08137 3.86122 1.06822 3.861 1.05515 3.86058C0.68993 3.84876 0.304812 3.70228 0.116808 3.38894C0.070207 3.32422 0.0344621 3.24743 0.00957516 3.16139C-0.0413497 2.98533 0.115373 2.83339 0.298652 2.83339H0.379379C0.51452 2.83339 0.604185 2.95728 0.677414 3.07086C0.684326 3.08158 0.689108 3.08922 0.695533 3.10024C0.706873 3.11968 0.719057 3.13746 0.732126 3.15358C0.801193 3.23875 0.908912 3.29395 1.0182 3.30299C1.05043 3.30566 1.08425 3.30566 1.11955 3.30566C1.2251 3.30566 1.31392 3.30561 1.38892 3.25005C1.46114 3.1945 1.51672 3.13889 1.55561 3.05556C1.5945 2.97222 1.614 2.86106 1.61678 2.72217V0.493232ZM4.69458 2.66683V1.40428C4.69458 1.22709 4.83823 1.08344 5.01542 1.08344C5.19262 1.08344 5.33626 1.22709 5.33626 1.40428V3.49447C5.33626 3.66631 5.19696 3.80561 5.02512 3.80561H4.95011C4.8197 3.80561 4.71398 3.69989 4.71398 3.56947V3.3518C4.71398 3.3416 4.70571 3.33333 4.69551 3.33333C4.68819 3.33333 4.68157 3.33766 4.67854 3.34433C4.62313 3.46612 4.53767 3.58674 4.42042 3.66878C4.39458 3.68686 4.3686 3.70485 4.34236 3.72235C4.2105 3.81027 4.05105 3.83328 3.86396 3.83328C3.68618 3.83328 3.52786 3.80566 3.38897 3.72233C3.25286 3.639 3.14733 3.52794 3.06955 3.36127C2.99455 3.22238 2.95562 3.02794 2.95562 2.80572V1.40428C2.95562 1.22709 3.09927 1.08344 3.27646 1.08344C3.45366 1.08344 3.5973 1.22709 3.5973 1.40428V2.72217C3.5973 2.73604 3.59763 2.74971 3.59829 2.7632C3.61148 3.03494 3.84187 3.27772 4.11393 3.27772C4.30097 3.27772 4.47976 3.17807 4.588 3.02554C4.59404 3.01703 4.59991 3.00848 4.6056 2.99995C4.66394 2.91661 4.69458 2.80572 4.69458 2.66683ZM6.63902 2.19455V3.48477C6.63902 3.66196 6.49538 3.80561 6.31818 3.80561C6.14099 3.80561 5.99734 3.66196 5.99734 3.48477V1.39038C5.99734 1.22086 6.13476 1.08344 6.30428 1.08344H6.37508C6.5055 1.08344 6.61122 1.18916 6.61122 1.31958V1.53607C6.61122 1.54692 6.62002 1.55572 6.63087 1.55572C6.63911 1.55572 6.64646 1.55055 6.64942 1.54286C6.7109 1.38328 6.80919 1.27495 6.94447 1.16672C7.08336 1.08339 7.2529 1.0555 7.45568 1.0555C7.64456 1.0555 7.80846 1.08339 7.94735 1.16672C8.08901 1.25005 8.19726 1.36122 8.27504 1.50011C8.35282 1.66678 8.39182 1.86122 8.39182 2.05566V3.48334C8.39182 3.66133 8.24754 3.80561 8.06955 3.80561C7.89157 3.80561 7.74729 3.66133 7.74729 3.48334V2.16661C7.74729 2.16182 7.74725 2.15704 7.74717 2.15225C7.74243 1.86087 7.50824 1.58339 7.21682 1.58339C7.10571 1.58339 7.00569 1.61111 6.9168 1.66667C6.83069 1.72222 6.76403 1.77783 6.71403 1.86117C6.66403 1.97228 6.63902 2.08344 6.63902 2.19455ZM9.36533 3.80561C9.18813 3.80561 9.04449 3.66196 9.04449 3.48477V1.40428C9.04449 1.22709 9.18813 1.08344 9.36533 1.08344C9.54253 1.08344 9.68617 1.22709 9.68617 1.40428V3.48477C9.68617 3.66196 9.54253 3.80561 9.36533 3.80561ZM9.36675 0.694444C9.36381 0.694444 9.36087 0.69442 9.35794 0.694372C9.16873 0.691224 8.99458 0.52262 8.99458 0.333388C8.99458 0.147676 9.18104 0 9.36675 0C9.3679 0 9.36904 3.42466e-06 9.37018 1.02741e-05C9.55539 0.00112417 9.73893 0.148172 9.73893 0.333388C9.73893 0.521565 9.56819 0.689746 9.38006 0.694286C9.37565 0.694392 9.37122 0.694444 9.36675 0.694444ZM10.6695 4.83344C10.4915 4.83344 10.3472 4.68916 10.3472 4.51118V1.40015C10.3472 1.22524 10.489 1.08344 10.664 1.08344H10.7585C10.8812 1.08344 10.9807 1.18291 10.9807 1.30561V1.50474C10.9807 1.51746 10.991 1.52778 11.0037 1.52778C11.0118 1.52778 11.0193 1.52354 11.0234 1.51659C11.0522 1.46826 11.0903 1.40256 11.1377 1.33467C11.1513 1.31518 11.1671 1.29735 11.1843 1.28093C11.2062 1.26002 11.2308 1.23684 11.258 1.2135C11.3476 1.13654 11.4598 1.09186 11.5764 1.07317C11.6425 1.06259 11.716 1.0555 11.7973 1.0555C12.0084 1.0555 12.1973 1.08328 12.3667 1.19439C12.5361 1.3055 12.6724 1.47222 12.7724 1.66667C12.8724 1.88889 12.9223 2.13883 12.9223 2.44439C12.9223 2.74995 12.8723 3.00016 12.7751 3.22238C12.6779 3.41683 12.5418 3.58328 12.3751 3.69439C12.2057 3.8055 12.014 3.86122 11.7973 3.86122C11.6418 3.86122 11.514 3.8335 11.4084 3.77794C11.3057 3.72238 11.2251 3.66677 11.1612 3.58344C11.1028 3.50377 11.057 3.44944 11.0216 3.39627C11.0185 3.39172 11.0134 3.38894 11.008 3.38894C10.999 3.38894 10.9918 3.39619 10.9918 3.40512V4.51118C10.9918 4.68916 10.8475 4.83344 10.6695 4.83344ZM10.9778 2.44439C10.9778 2.61106 11.0028 2.77778 11.0528 2.91667C11.0542 2.91971 11.0556 2.92275 11.057 2.92579C11.16 3.1486 11.374 3.33333 11.6195 3.33333C11.8704 3.33333 12.0963 3.14824 12.1833 2.91283C12.1862 2.90498 12.189 2.89704 12.1917 2.889C12.2417 2.77789 12.2667 2.61106 12.2667 2.44439C12.2667 2.27772 12.2418 2.11117 12.1946 2.00005C12.1127 1.75912 11.874 1.58339 11.6195 1.58339C11.3773 1.58339 11.1589 1.73901 11.0565 1.95847C11.0543 1.96311 11.0522 1.96775 11.0501 1.97238C11.0029 2.11127 10.9778 2.27772 10.9778 2.44439ZM14.6806 3.86122C14.4056 3.86122 14.1696 3.8055 13.9723 3.69439C13.7751 3.58328 13.6223 3.41667 13.5167 3.19444C13.4084 3 13.3556 2.74995 13.3556 2.44439C13.3556 2.16661 13.4084 1.9445 13.5167 1.72228C13.6223 1.50005 13.7723 1.33344 13.9668 1.22233C14.1584 1.11122 14.3863 1.0555 14.6474 1.0555C14.6494 1.0555 14.6515 1.05551 14.6535 1.05551C14.9681 1.0568 15.2943 1.14151 15.5195 1.36122C15.6362 1.47233 15.7279 1.63889 15.7946 1.80556C15.8612 1.97222 15.8918 2.1945 15.8918 2.41672C15.8918 2.52414 15.8047 2.61122 15.6973 2.61122H13.8668C13.7517 2.61122 13.6585 2.51795 13.6585 2.40289C13.6585 2.28783 13.7517 2.19455 13.8668 2.19455H14.9307C15.1212 2.19455 15.2994 2.02218 15.1974 1.86117C15.1446 1.75005 15.0724 1.69455 14.9779 1.639C14.8863 1.58344 14.7779 1.55572 14.6557 1.55572C14.5251 1.55572 14.4084 1.58344 14.3084 1.639C14.2084 1.69455 14.1334 1.77772 14.0779 1.88883C14.0223 1.99995 13.9946 2.11111 13.9946 2.22222V2.61122C13.9946 2.75011 14.0224 2.88883 14.0807 2.99995C14.139 3.11106 14.2195 3.22217 14.3223 3.27772C14.4278 3.33328 14.5501 3.36127 14.689 3.36127C14.6983 3.36127 14.7076 3.361 14.7167 3.36049C14.8702 3.35179 15.0302 3.3032 15.1389 3.19444C15.2353 3.09808 15.3647 3.01358 15.4997 3.03238L15.5193 3.0351C15.7031 3.06071 15.8207 3.24472 15.72 3.40069C15.6986 3.43385 15.6753 3.46701 15.6501 3.50016C15.4295 3.73238 15.0997 3.84396 14.7798 3.85899C14.7473 3.86051 14.7142 3.86122 14.6806 3.86122ZM16.7585 3.80561C16.5805 3.80561 16.4363 3.66136 16.4363 3.48341V1.39594C16.4363 1.22335 16.5762 1.08344 16.7488 1.08344H16.8391C16.9618 1.08344 17.0613 1.18291 17.0613 1.30561V1.51153C17.0613 1.5205 17.0685 1.52778 17.0775 1.52778C17.0844 1.52778 17.0905 1.52348 17.0928 1.51706C17.1432 1.38178 17.2255 1.24791 17.3446 1.16672C17.4668 1.08339 17.6057 1.02783 17.7613 1.02783C17.7913 1.02783 17.8233 1.02776 17.8588 1.04379C17.8736 1.05045 17.8929 1.0555 17.9091 1.0555C17.9568 1.0555 17.9917 1.09415 17.9917 1.14183V1.52833C17.9917 1.58945 17.9498 1.64342 17.892 1.62342C17.8771 1.61825 17.853 1.61106 17.8372 1.61106C17.7891 1.61106 17.7398 1.61106 17.6945 1.61106C17.5779 1.61106 17.4723 1.63905 17.3778 1.69461C17.2862 1.75016 17.2139 1.8055 17.1584 1.88883C17.1056 1.97217 17.0806 2.08344 17.0806 2.19455V3.48341C17.0806 3.66136 16.9364 3.80561 16.7585 3.80561Z" fill="black"/>
</svg>
