<svg width="65" height="7" viewBox="0 0 65 7" fill="none" xmlns="http://www.w3.org/2000/svg">
<path d="M5.53294 1.84093C5.66106 2.17712 5.37629 2.5 5.01651 2.5C4.72772 2.5 4.48792 2.28597 4.359 2.02755C4.34981 2.00914 4.34031 1.99076 4.33051 1.97239C4.23885 1.8335 4.12781 1.6945 3.9917 1.58339C3.85837 1.50005 3.70277 1.41678 3.53054 1.36122C3.3611 1.30566 3.17492 1.27794 2.9777 1.27794C2.6277 1.27794 2.31663 1.36111 2.04441 1.52778C1.77218 1.72222 1.56113 1.97244 1.40557 2.30577C1.25279 2.63911 1.17499 3.05577 1.17499 3.55577C1.17499 4.028 1.25279 4.44466 1.40557 4.80577C1.56113 5.13911 1.77496 5.38889 2.04441 5.55556C2.31663 5.72222 2.62499 5.80566 2.97499 5.80566C3.07372 5.80566 3.16888 5.79849 3.26081 5.78779C3.43364 5.76767 3.60815 5.7295 3.76077 5.64596C3.91338 5.56243 4.05699 5.46078 4.17316 5.33128C4.22713 5.27112 4.27577 5.20498 4.31939 5.13889C4.32824 5.12587 4.33685 5.1126 4.34522 5.0991C4.4959 4.85572 4.72423 4.63894 5.01047 4.63894C5.37258 4.63894 5.65254 4.965 5.507 5.29657C5.47709 5.36473 5.44416 5.43248 5.40826 5.50022C5.26381 5.778 5.0722 6.00011 4.83887 6.22233C4.60276 6.41678 4.32498 6.5835 4.0111 6.69461C3.69443 6.80572 3.34442 6.86117 2.95831 6.86117C2.39164 6.86117 1.88325 6.72244 1.4388 6.47244C0.99158 6.22244 0.641634 5.83339 0.383301 5.33339C0.127745 4.83339 0 4.25022 0 3.55577C0 2.86133 0.127816 2.25022 0.386149 1.75022C0.644482 1.25022 0.997141 0.888943 1.44436 0.611165C1.89159 0.361165 2.39442 0.222439 2.95831 0.222439C3.31942 0.222439 3.65278 0.277886 3.96389 0.388997C4.27223 0.472331 4.54722 0.638889 4.79167 0.833333C5.03333 1.02778 5.23059 1.25 5.38615 1.52778C5.44195 1.62567 5.49083 1.73046 5.53294 1.84093ZM7.86106 3.9445V6.20707C7.86106 6.52232 7.60549 6.77789 7.29024 6.77789C6.97499 6.77789 6.71943 6.52232 6.71943 6.20707V0.864055C6.71943 0.555694 6.9694 0.305718 7.27776 0.305718C7.58612 0.305718 7.8361 0.555694 7.8361 0.864055V2.71691C7.8361 2.73524 7.85097 2.75011 7.8693 2.75011C7.88278 2.75011 7.89489 2.74194 7.90016 2.72954C8.01419 2.46136 8.1865 2.24672 8.41946 2.11127C8.65835 1.94461 8.96385 1.86117 9.33607 1.86117C9.67218 1.86117 9.96383 1.94444 10.2166 2.08333C10.4666 2.22222 10.6584 2.41672 10.7973 2.6945C10.9361 2.97228 11.0056 3.30577 11.0056 3.69466V6.20565C11.0056 6.52169 10.7494 6.77789 10.4334 6.77789C10.1173 6.77789 9.86111 6.52169 9.86111 6.20565V3.86122C9.86111 3.52789 9.77773 3.27783 9.60829 3.11117C9.4444 2.91672 9.21106 2.83339 8.90829 2.83339C8.70551 2.83339 8.52503 2.88894 8.3667 2.97228C8.20837 3.05561 8.08327 3.16667 7.99439 3.33333C7.9055 3.5 7.86106 3.6945 7.86106 3.9445ZM14.2833 6.86117C13.8111 6.86117 13.3999 6.77794 13.0527 6.55572C12.7055 6.36127 12.4361 6.05556 12.2445 5.69444C12.0556 5.30556 11.9611 4.86117 11.9611 4.36117C11.9611 3.86117 12.0556 3.44444 12.2445 3.05556C12.4361 2.66667 12.7055 2.38911 13.0527 2.16688C13.3999 1.97244 13.8111 1.86117 14.2833 1.86117C14.7583 1.86117 15.1694 1.97244 15.5166 2.16688C15.8639 2.38911 16.1306 2.66667 16.3194 3.05556C16.5111 3.44444 16.6083 3.86117 16.6083 4.36117C16.6083 4.86117 16.5111 5.30556 16.3194 5.69444C16.1306 6.05556 15.8639 6.36127 15.5166 6.55572C15.1694 6.77794 14.7583 6.86117 14.2833 6.86117ZM14.2916 5.94455C14.5471 5.94455 14.7611 5.88894 14.9361 5.75005C15.1083 5.61117 15.2361 5.41683 15.3194 5.16683C15.4055 4.94461 15.45 4.66672 15.45 4.36117C15.45 4.08339 15.4055 3.80577 15.3194 3.55577C15.2361 3.33355 15.1083 3.13911 14.9361 3.00022C14.7611 2.83355 14.5471 2.77778 14.2916 2.77778C14.0277 2.77778 13.8084 2.83355 13.6334 3.00022C13.4611 3.13911 13.3333 3.33355 13.2472 3.55577C13.1611 3.80577 13.1194 4.08339 13.1194 4.36117C13.1194 4.66672 13.1611 4.94461 13.2472 5.16683C13.3333 5.41683 13.4611 5.61117 13.6334 5.75005C13.8084 5.88894 14.0277 5.94455 14.2916 5.94455ZM19.6917 6.86117C19.2195 6.86117 18.8083 6.77794 18.4611 6.55572C18.1139 6.36127 17.8444 6.05556 17.6527 5.69444C17.4638 5.30556 17.3694 4.86117 17.3694 4.36117C17.3694 3.86117 17.4638 3.44444 17.6527 3.05556C17.8444 2.66667 18.1139 2.38911 18.4611 2.16688C18.8083 1.97244 19.2195 1.86117 19.6917 1.86117C20.1667 1.86117 20.575 1.97244 20.9222 2.16688C21.2694 2.38911 21.5388 2.66667 21.7277 3.05556C21.9194 3.44444 22.0166 3.86117 22.0166 4.36117C22.0166 4.86117 21.9194 5.30556 21.7277 5.69444C21.5388 6.05556 21.2694 6.36127 20.9222 6.55572C20.575 6.77794 20.1667 6.86117 19.6917 6.86117ZM19.7 5.94455C19.9555 5.94455 20.1694 5.88894 20.3417 5.75005C20.5167 5.61117 20.6445 5.41683 20.7278 5.16683C20.8139 4.94461 20.8583 4.66672 20.8583 4.36117C20.8583 4.08339 20.8139 3.80577 20.7278 3.55577C20.6445 3.33355 20.5167 3.13911 20.3417 3.00022C20.1694 2.83355 19.9555 2.77778 19.7 2.77778C19.4361 2.77778 19.2166 2.83355 19.0416 3.00022C18.8694 3.13911 18.7389 3.33355 18.6528 3.55577C18.5694 3.80577 18.5277 4.08339 18.5277 4.36117C18.5277 4.66672 18.5694 4.94461 18.6528 5.16683C18.7389 5.41683 18.8694 5.61117 19.0416 5.75005C19.2166 5.88894 19.4361 5.94455 19.7 5.94455ZM26.6182 2.67984C26.7768 2.94975 26.5506 3.25072 26.2393 3.28388L26.1177 3.29684C25.9212 3.31776 25.7515 3.17719 25.6222 3.02789C25.5499 2.94455 25.4528 2.86127 25.3305 2.80572C25.2083 2.75016 25.0584 2.72244 24.8834 2.72244C24.6445 2.72244 24.4444 2.77799 24.2833 2.86133C24.1222 2.97244 24.0444 3.11133 24.0472 3.27799C24.0444 3.41688 24.0945 3.52778 24.2 3.61111C24.3084 3.69444 24.4861 3.77799 24.7305 3.83355L25.5583 4.00011C26.0166 4.11122 26.3583 4.27794 26.5805 4.47239C26.8055 4.69461 26.9194 4.97228 26.9222 5.33339C26.9194 5.63894 26.8305 5.88905 26.6527 6.13905C26.4777 6.36127 26.2361 6.55556 25.925 6.66667C25.6139 6.80556 25.2555 6.86117 24.85 6.86117C24.2583 6.86117 23.7805 6.75011 23.4166 6.50011C23.2328 6.37288 23.0872 6.21688 22.9793 6.03577C22.8056 5.74403 23.0621 5.42294 23.4007 5.39762C23.6816 5.37662 23.9188 5.58785 24.1305 5.77368C24.1548 5.795 24.1807 5.81493 24.2083 5.83333C24.3722 5.94444 24.586 6.00016 24.8471 6.00016C25.1194 6.00016 25.3361 5.94444 25.4999 5.83333C25.6666 5.72222 25.7499 5.58333 25.7499 5.41667C25.7499 5.27778 25.6973 5.16688 25.5889 5.08355C25.4834 5.00022 25.3195 4.91683 25.0972 4.88905L24.2695 4.69455C23.8056 4.61122 23.461 4.4445 23.2388 4.22228C23.0138 3.97228 22.9055 3.69444 22.9055 3.33333C22.9055 3.02778 22.9861 2.77783 23.15 2.55561C23.3166 2.33339 23.5472 2.16678 23.8417 2.05566C24.1389 1.91678 24.4806 1.86117 24.8667 1.86117C25.4361 1.86117 25.8834 2 26.2084 2.22222C26.3788 2.35221 26.5154 2.50476 26.6182 2.67984ZM30.0111 6.86117C29.525 6.86117 29.1056 6.77794 28.75 6.55572C28.4 6.36127 28.1306 6.08333 27.9389 5.69444C27.75 5.33333 27.6556 4.88911 27.6556 4.38911C27.6556 3.88911 27.75 3.44444 27.9389 3.05556C28.1306 2.69444 28.3971 2.389 28.7416 2.19455C29.0833 1.97233 29.4888 1.86117 29.95 1.86117C30.25 1.86117 30.5306 1.91672 30.7973 2.00005C31.0639 2.11117 31.2999 2.25022 31.5027 2.44466C31.711 2.66688 31.8721 2.91683 31.9888 3.22239C32.1082 3.52794 32.1666 3.88889 32.1666 4.30556C32.1666 4.50511 32.0048 4.66688 31.8053 4.66688H28.5806C28.3658 4.66688 28.1916 4.49272 28.1916 4.27789C28.1916 4.06305 28.3658 3.88889 28.5806 3.88889H30.4648C30.799 3.88889 31.0925 3.59642 30.9277 3.30566C30.8361 3.139 30.7083 3 30.5416 2.91667C30.3777 2.80556 30.1861 2.75011 29.9666 2.75011C29.7333 2.75011 29.5277 2.80556 29.3499 2.91667C29.1749 3.02778 29.0361 3.19461 28.9361 3.36127C28.8416 3.55572 28.7917 3.75022 28.7889 3.97244V4.63894C28.7889 4.91672 28.8416 5.16688 28.9444 5.36133C29.0471 5.55577 29.1917 5.72222 29.375 5.83333C29.5611 5.91667 29.7777 5.97222 30.025 5.97222C30.1916 5.97222 30.3416 5.97244 30.4777 5.91688C30.6007 5.86562 30.7096 5.81418 30.8043 5.71924C30.8203 5.70315 30.8357 5.68826 30.8524 5.67288C31.0137 5.52484 31.2058 5.37724 31.4235 5.39989L31.4869 5.40648C31.8219 5.44133 32.0522 5.77168 31.8637 6.05081C31.8239 6.10971 31.7804 6.16689 31.7333 6.22233C31.5472 6.41678 31.3055 6.5835 31.0139 6.69461C30.7222 6.80572 30.3861 6.86117 30.0111 6.86117ZM36.7333 6.88911C36.4249 6.88911 36.15 6.83339 35.9028 6.72228C35.6583 6.61117 35.4666 6.44455 35.3221 6.22233C35.1805 6.00011 35.1111 5.72222 35.1111 5.41667C35.1111 5.13889 35.1611 4.91683 35.2611 4.75016C35.3639 4.55572 35.4999 4.41667 35.6749 4.30556C35.8499 4.19444 36.0472 4.11127 36.2667 4.05572C36.4861 4.00016 36.7167 3.97228 36.95 3.9445C37.2361 3.91672 37.4666 3.889 37.6416 3.86122C37.8194 3.83344 37.9472 3.80556 38.0278 3.75C38.1083 3.69444 38.15 3.61127 38.15 3.50016C38.15 3.25016 38.0806 3.05572 37.9389 2.94461C37.7972 2.80572 37.5945 2.75011 37.3306 2.75011C37.05 2.75011 36.8277 2.80556 36.6638 2.91667C36.6376 2.93926 36.6127 2.96185 36.5892 2.98457C36.3988 3.16836 36.1447 3.33133 35.8832 3.29045C35.5586 3.23968 35.3463 2.90348 35.542 2.63958C35.5861 2.58022 35.6341 2.5243 35.686 2.47233C35.8777 2.27789 36.1167 2.11133 36.3945 2.02799C36.675 1.91688 36.9833 1.86117 37.3222 1.86117C37.5583 1.86117 37.7889 1.88889 38.0222 1.94444C38.2527 2 38.4638 2.08333 38.6555 2.22222C38.8471 2.33333 39 2.50022 39.1166 2.72244C39.2333 2.94466 39.2944 3.22228 39.2944 3.52783V6.22789C39.2944 6.53165 39.0482 6.77789 38.7444 6.77789H38.5278C38.3437 6.77789 38.1944 6.62862 38.1944 6.4445V6.13517C38.1944 6.12188 38.1837 6.11111 38.1704 6.11111C38.1613 6.11111 38.153 6.11627 38.1488 6.12436C38.0798 6.25715 37.9849 6.36566 37.8639 6.50011C37.7389 6.61122 37.5833 6.69455 37.3916 6.77789C37.2055 6.83344 36.986 6.88911 36.7333 6.88911ZM37.0306 6.02783C37.2584 6.02783 37.4583 6.00005 37.6278 5.88894C37.7944 5.80561 37.925 5.69455 38.0139 5.52789C38.1084 5.389 38.1528 5.22239 38.1528 5.02794V4.67464C38.1528 4.59201 38.0481 4.5303 37.9694 4.55566C37.8861 4.58344 37.7916 4.5835 37.6861 4.61127C37.5805 4.63905 37.4777 4.63911 37.3749 4.66688C37.3563 4.67194 37.3379 4.67607 37.32 4.67944C37.1792 4.70597 37.034 4.70459 36.8955 4.7416C36.8823 4.74513 36.8693 4.74868 36.8563 4.75223C36.7178 4.79017 36.5664 4.83205 36.4515 4.91826C36.3579 4.98853 36.2853 5.07272 36.2455 5.18281C36.2225 5.24631 36.2111 5.31355 36.2111 5.389C36.2111 5.61122 36.2889 5.77783 36.4417 5.88894C36.5972 5.97228 36.7917 6.02783 37.0306 6.02783ZM46.1793 1.91678C46.5687 1.91678 46.8408 2.30227 46.7104 2.6692L45.4612 6.18375C45.3345 6.53994 44.9974 6.77789 44.6194 6.77789C44.2414 6.77789 43.9043 6.53993 43.7777 6.18373L42.5296 2.67219C42.3987 2.30379 42.6719 1.91678 43.0629 1.91678C43.3111 1.91678 43.5304 2.07861 43.6036 2.31586L44.5871 5.50402C44.5915 5.51821 44.6046 5.52789 44.6194 5.52789C44.6343 5.52789 44.6474 5.51823 44.6518 5.50407L45.6409 2.31352C45.714 2.07759 45.9323 1.91678 46.1793 1.91678ZM49.7194 6.86117C49.2444 6.86117 48.8333 6.77794 48.4861 6.55572C48.1388 6.36127 47.8722 6.05556 47.6805 5.69444C47.4889 5.30556 47.3945 4.86117 47.3945 4.36117C47.3945 3.86117 47.4889 3.44444 47.6805 3.05556C47.8722 2.66667 48.1388 2.38911 48.4861 2.16688C48.8333 1.97244 49.2444 1.86117 49.7194 1.86117C50.1916 1.86117 50.6028 1.97244 50.95 2.16688C51.2972 2.38911 51.5638 2.66667 51.7555 3.05556C51.9472 3.44444 52.0417 3.86117 52.0417 4.36117C52.0417 4.86117 51.9472 5.30556 51.7555 5.69444C51.5638 6.05556 51.2972 6.36127 50.95 6.55572C50.6028 6.77794 50.1916 6.86117 49.7194 6.86117ZM49.7249 5.94455C49.9805 5.94455 50.1972 5.88894 50.3695 5.75005C50.5417 5.61117 50.6694 5.41683 50.7528 5.16683C50.8389 4.94461 50.8832 4.66672 50.8832 4.36117C50.8832 4.08339 50.8389 3.80577 50.7528 3.55577C50.6694 3.33355 50.5417 3.13911 50.3695 3.00022C50.1972 2.83355 49.9805 2.77778 49.7249 2.77778C49.461 2.77778 49.2416 2.83355 49.0694 3.00022C48.8944 3.13911 48.7667 3.33355 48.6806 3.55577C48.5944 3.80577 48.5528 4.08339 48.5528 4.36117C48.5528 4.66672 48.5944 4.94461 48.6806 5.16683C48.7667 5.41683 48.8944 5.61117 49.0694 5.75005C49.2416 5.88894 49.461 5.94455 49.7249 5.94455ZM53.5833 6.77789C53.2673 6.77789 53.0111 6.52169 53.0111 6.20565V2.48901C53.0111 2.17298 53.2673 1.91678 53.5833 1.91678C53.8993 1.91678 54.1555 2.17298 54.1555 2.48901V6.20565C54.1555 6.52169 53.8993 6.77789 53.5833 6.77789ZM53.586 1.25C53.4055 1.25 53.25 1.19466 53.1194 1.05577C52.9889 0.944661 52.9222 0.80561 52.9222 0.611165C52.9222 0.444499 52.9889 0.30561 53.1194 0.194499C53.25 0.0556098 53.4055 0 53.586 0C53.7694 0 53.925 0.0556098 54.0527 0.194499C54.1833 0.30561 54.2499 0.444499 54.2499 0.611165C54.2499 0.80561 54.1833 0.944661 54.0527 1.05577C53.925 1.19466 53.7694 1.25 53.586 1.25ZM57.4444 6.86117C56.9611 6.86117 56.5445 6.77794 56.1972 6.55572C55.8528 6.3335 55.5861 6.05566 55.4 5.66678C55.2139 5.30566 55.1222 4.86117 55.1222 4.36117C55.1222 3.88894 55.2167 3.44444 55.4055 3.05556C55.5944 2.69444 55.8611 2.389 56.2055 2.19455C56.5527 1.97233 56.9638 1.86117 57.4388 1.86117C57.8305 1.86117 58.1806 1.94444 58.4833 2.08333C58.7889 2.22222 59.0305 2.41672 59.211 2.6945C59.2824 2.79334 59.3421 2.90086 59.3897 3.01706C59.515 3.32291 59.2415 3.61111 58.9109 3.61111C58.6321 3.61111 58.4151 3.39061 58.2473 3.16792C58.2084 3.11624 58.1639 3.06957 58.1139 3.02789C57.95 2.86122 57.7306 2.77778 57.4528 2.77778C57.2195 2.77778 57.0139 2.86117 56.8389 2.97228C56.6611 3.11117 56.5222 3.27794 56.425 3.50016C56.3277 3.75016 56.2805 4.02783 56.2805 4.36117C56.2805 4.6945 56.3277 4.97228 56.425 5.1945C56.5222 5.4445 56.6583 5.61117 56.8305 5.75005C57.0083 5.88894 57.2167 5.94455 57.4528 5.94455C57.4627 5.94455 57.4724 5.94446 57.4822 5.94426C57.7771 5.93838 58.0826 5.80404 58.2416 5.55556C58.2433 5.55361 58.2449 5.55165 58.2464 5.54969C58.4207 5.33409 58.6304 5.11122 58.9076 5.11122C59.2391 5.11122 59.5121 5.40095 59.3893 5.70889C59.3436 5.8237 59.2868 5.93002 59.2194 6.02783C59.0444 6.30561 58.8056 6.50011 58.5056 6.639C58.2028 6.80566 57.8499 6.86117 57.4444 6.86117ZM62.6055 6.86117C62.1194 6.86117 61.7 6.77794 61.3473 6.55572C60.9945 6.36127 60.7249 6.08333 60.536 5.69444C60.3471 5.33333 60.25 4.88911 60.25 4.38911C60.25 3.88911 60.3471 3.44444 60.536 3.05556C60.7277 2.69444 60.9945 2.389 61.3361 2.19455C61.6806 1.97233 62.0833 1.86117 62.5472 1.86117C62.8444 1.86117 63.1278 1.91672 63.3917 2.00005C63.6583 2.11117 63.8944 2.25022 64.0999 2.44466C64.3055 2.66688 64.4666 2.91683 64.5861 3.22239C64.7027 3.52794 64.7612 3.88889 64.7612 4.30556C64.7612 4.50511 64.5994 4.66688 64.3998 4.66688H61.1778C60.963 4.66688 60.7888 4.49272 60.7888 4.27789C60.7888 4.06305 60.963 3.88889 61.1778 3.88889H63.0603C63.3939 3.88889 63.6858 3.59799 63.525 3.30566C63.4333 3.139 63.3028 3 63.1361 2.91667C62.9722 2.80556 62.7805 2.75011 62.561 2.75011C62.3277 2.75011 62.1222 2.80556 61.9472 2.91667C61.7694 3.02778 61.6306 3.19461 61.5333 3.36127C61.4361 3.55572 61.3861 3.75022 61.3833 3.97244V4.63894C61.3833 4.91672 61.4361 5.16688 61.5389 5.36133C61.6417 5.55577 61.7861 5.72222 61.9723 5.83333C62.1556 5.91667 62.3722 5.97222 62.6222 5.97222C62.7889 5.97222 62.9389 5.97244 63.0722 5.91688C63.1967 5.86607 63.3049 5.81507 63.3969 5.7217C63.4142 5.70407 63.4308 5.68772 63.449 5.67091C63.6083 5.52339 63.7989 5.37711 64.0149 5.39957L64.0813 5.40648C64.4163 5.44133 64.6477 5.77205 64.4599 6.05166C64.4205 6.11027 64.3774 6.16716 64.3305 6.22233C64.1416 6.41678 63.9028 6.5835 63.6111 6.69461C63.3167 6.80572 62.9833 6.86117 62.6055 6.86117Z" fill="black"/>
</svg>
