<svg width="12" height="4" viewBox="0 0 12 4" fill="none" xmlns="http://www.w3.org/2000/svg">
<path d="M1.1221 3.63878C0.50238 3.63878 0 3.1364 0 2.51668V1.17215C0 0.524789 0.524788 0 1.17215 0C1.52492 0 1.82777 0.0832791 2.07777 0.222168C2.33055 0.361057 2.5221 0.583333 2.65544 0.833333C2.78877 1.11111 2.8555 1.44444 2.8555 1.80556C2.8555 2.19444 2.78883 2.52767 2.65272 2.80545C2.51939 3.05545 2.32214 3.27772 2.0638 3.41661C1.80547 3.5555 1.49154 3.63878 1.1221 3.63878ZM0.441623 2.59698C0.441623 2.95751 0.733894 3.24978 1.09443 3.24978C1.39443 3.24978 1.64441 3.19434 1.84163 3.08323C2.03886 2.94434 2.18604 2.8055 2.28326 2.58328C2.38048 2.36106 2.43056 2.11111 2.43056 1.80556C2.43056 1.52778 2.38333 1.27772 2.28611 1.0555C2.18888 0.833279 2.04714 0.666667 1.85547 0.555556C1.66658 0.444444 1.42767 0.388726 1.14434 0.388726C0.756241 0.388726 0.441623 0.703344 0.441623 1.09144V2.59698ZM4.64722 3.69439C4.39999 3.69439 4.18324 3.63867 3.99712 3.52756C3.81379 3.38867 3.66933 3.24984 3.56378 3.02762C3.461 2.80539 3.41105 2.58312 3.41105 2.27756C3.41105 1.99978 3.461 1.74989 3.56378 1.55545C3.66933 1.33322 3.81379 1.16661 3.99712 1.0555C4.18324 0.94439 4.39999 0.888672 4.64722 0.888672C4.89166 0.888672 5.10828 0.94439 5.29161 1.0555C5.47772 1.16661 5.62218 1.33322 5.72496 1.55545C5.83052 1.74989 5.88053 1.99978 5.88053 2.27756C5.88053 2.58312 5.83052 2.80539 5.72496 3.02762C5.62218 3.24984 5.47772 3.38867 5.29161 3.52756C5.10828 3.63867 4.89166 3.69439 4.64722 3.69439ZM4.64722 3.30539C4.83333 3.30539 4.98601 3.27762 5.10824 3.1665C5.22768 3.08317 5.31656 2.94434 5.37489 2.80545C5.43323 2.63878 5.46387 2.47201 5.46387 2.27756C5.46387 2.11089 5.43323 1.94428 5.37489 1.77762C5.27008 1.47814 4.97683 1.2543 4.65957 1.25008C4.65547 1.25003 4.65135 1.25 4.64722 1.25C4.6421 1.25 4.63701 1.25004 4.63195 1.25012C4.31471 1.25519 4.02137 1.47814 3.91656 1.77762C3.85823 1.94428 3.82772 2.11089 3.82772 2.27756C3.82772 2.47201 3.85823 2.63878 3.91656 2.80545C3.97489 2.94434 4.06377 3.08317 4.18321 3.1665C4.30544 3.27762 4.45833 3.30539 4.64722 3.30539ZM6.9416 1.99978V3.42909C6.9416 3.5449 6.84772 3.63878 6.73191 3.63878C6.6161 3.63878 6.52222 3.5449 6.52222 3.42909V1.11796C6.52222 1.00676 6.61236 0.916612 6.72357 0.916612C6.83477 0.916612 6.92491 1.00676 6.92491 1.11796V1.31129C6.92491 1.32343 6.93476 1.33328 6.9469 1.33328C6.95549 1.33328 6.96327 1.32827 6.96699 1.32053C7.0309 1.18757 7.1262 1.08066 7.25274 0.999892C7.3833 0.916558 7.54991 0.888672 7.75825 0.888672C7.76719 0.888672 7.77608 0.888738 7.78491 0.888874C8.10147 0.893742 8.43386 1.04457 8.56378 1.33328C8.64155 1.47217 8.68056 1.6665 8.68056 1.9165V3.42902C8.68056 3.54487 8.58664 3.63878 8.4708 3.63878C8.35495 3.63878 8.26104 3.54487 8.26104 3.42902V1.94444C8.26104 1.72222 8.20546 1.55534 8.09435 1.44423C7.98324 1.30534 7.83049 1.25 7.63604 1.25C7.50271 1.25 7.38325 1.27772 7.2777 1.33328C7.17214 1.38883 7.09155 1.47201 7.03044 1.58312C6.96933 1.69423 6.9416 1.83312 6.9416 1.99978ZM10.5888 3.69439C10.3277 3.69439 10.1 3.63867 9.90831 3.52756C9.71942 3.41645 9.57489 3.24984 9.47211 3.02762C9.36934 2.83317 9.31939 2.58328 9.31939 2.3055C9.31939 2.02772 9.36934 1.77767 9.47211 1.55545C9.57489 1.33322 9.71657 1.16661 9.8999 1.0555C10.086 0.94439 10.2999 0.888672 10.5471 0.888672C10.6888 0.888672 10.8306 0.888726 10.9667 0.944282C11.2397 1.05349 11.4737 1.26148 11.594 1.52978C11.6018 1.54723 11.6094 1.56501 11.6166 1.58312C11.6861 1.77756 11.7194 1.97211 11.7194 2.24989C11.7194 2.34188 11.6449 2.41645 11.5529 2.41645H9.79709C9.69739 2.41645 9.61656 2.33562 9.61656 2.23592C9.61656 2.13622 9.69739 2.05539 9.79709 2.05539H10.8605C11.0986 2.05539 11.3147 1.84737 11.2 1.63873C11.0765 1.41429 10.8354 1.25762 10.5794 1.25044C10.5687 1.25014 10.558 1.25 10.5471 1.25C10.3805 1.25 10.236 1.30556 10.1138 1.38889C9.99158 1.47222 9.89991 1.55545 9.83602 1.69434C9.76935 1.83322 9.73606 1.97211 9.73606 2.111V2.36111C9.73606 2.55556 9.77221 2.74984 9.84443 2.88873C9.98367 3.15649 10.287 3.30539 10.5888 3.30539C10.6999 3.30539 10.7999 3.3055 10.8888 3.27772C10.9689 3.2527 11.0399 3.20514 11.1 3.15534C11.113 3.14451 11.1247 3.13216 11.1354 3.11895C11.1503 3.10047 11.1642 3.08313 11.1774 3.06587C11.2458 2.97598 11.3579 2.91241 11.4668 2.94248C11.581 2.97401 11.6499 3.09554 11.5914 3.1986C11.5604 3.25331 11.5238 3.3028 11.4819 3.34248C11.4684 3.35524 11.4549 3.36803 11.4421 3.38144C11.3454 3.4824 11.2269 3.55902 11.0889 3.61111C10.9416 3.66667 10.7749 3.69439 10.5888 3.69439Z" fill="white"/>
</svg>
