<svg width="16" height="4" viewBox="0 0 16 4" fill="none" xmlns="http://www.w3.org/2000/svg">
<path d="M3.00465 0.944801C3.0479 1.07219 2.94378 1.19439 2.80924 1.19439C2.7042 1.19439 2.61776 1.11756 2.57945 1.01975C2.55556 0.958783 2.52598 0.90586 2.49159 0.861003C2.48962 0.858437 2.48764 0.855871 2.48565 0.853306C2.3491 0.677564 2.16863 0.526254 1.95272 0.472277C1.84161 0.444499 1.72494 0.416667 1.6055 0.416667C1.38327 0.416667 1.18614 0.472114 1.00559 0.583225C0.82781 0.694336 0.686138 0.860948 0.58336 1.08317C0.477805 1.30539 0.42494 1.5555 0.42494 1.88883C0.42494 2.19439 0.477805 2.44434 0.58336 2.66656C0.686138 2.88878 0.82781 3.05539 1.00559 3.1665C1.18614 3.27762 1.38327 3.33333 1.6055 3.33333C1.72494 3.33333 1.84161 3.3055 1.95272 3.27772C2.16863 3.22375 2.37133 3.08939 2.48583 2.89854C2.48776 2.89532 2.48968 2.89205 2.49159 2.88873C2.52596 2.84389 2.55553 2.79109 2.5794 2.73023C2.61777 2.63245 2.7042 2.55561 2.80924 2.55561C2.94378 2.55561 3.0479 2.67781 3.00465 2.8052C2.97354 2.89681 2.93434 2.98026 2.88615 3.05556C2.88343 3.05994 2.88069 3.06432 2.87792 3.06871C2.70263 3.34627 2.43261 3.5597 2.12226 3.66672C1.96115 3.72228 1.78883 3.75 1.6055 3.75C1.29438 3.75 1.01939 3.66672 0.777723 3.52783C0.536057 3.36117 0.347222 3.13883 0.208333 2.86106C0.0694444 2.58328 0 2.24995 0 1.88883C0 1.49995 0.0694444 1.16672 0.208333 0.888943C0.347222 0.611165 0.536057 0.388835 0.777723 0.222168C1.01939 0.0832791 1.29438 0 1.6055 0C1.78883 0 1.96115 0.0277235 2.12226 0.0832791C2.28337 0.138835 2.43048 0.222276 2.56103 0.333388C2.68881 0.416721 2.80004 0.555556 2.88615 0.694444C2.93434 0.769742 2.97354 0.853189 3.00465 0.944801ZM4.52501 3.75C4.51831 3.75 4.51164 3.74996 4.50498 3.74987C4.19903 3.74602 3.8769 3.62337 3.71948 3.361C3.63615 3.24989 3.59443 3.11111 3.59443 2.91667C3.59443 2.77778 3.62501 2.63878 3.68612 2.52767C3.74723 2.44434 3.8306 2.36106 3.93338 2.3055C4.03615 2.24995 4.15004 2.22206 4.27504 2.19428C4.40004 2.1665 4.525 2.13878 4.65278 2.111C4.70996 2.10147 4.76322 2.09522 4.81268 2.09113C4.97355 2.07781 5.14421 2.0819 5.28334 2.00005C5.33056 1.97228 5.3555 1.9445 5.3555 1.86117C5.3555 1.66672 5.30827 1.55561 5.21105 1.4445C5.1166 1.36117 4.97499 1.30561 4.78054 1.30561C4.58054 1.30561 4.425 1.33339 4.31112 1.4445C4.25969 1.48213 4.21505 1.51976 4.1772 1.55995C4.10165 1.64019 3.98852 1.694 3.88449 1.65762C3.76979 1.61753 3.71085 1.48647 3.7781 1.38528C3.83005 1.30709 3.88918 1.24175 3.95548 1.19439C3.95977 1.19049 3.96406 1.18667 3.96836 1.18291C4.18166 0.996343 4.48333 0.944282 4.76671 0.944282C4.79838 0.944282 4.83145 0.944302 4.86606 0.945585C5.00246 0.950641 5.13944 0.965196 5.26538 1.01782C5.35546 1.05546 5.44152 1.11027 5.51184 1.17799C5.57152 1.23546 5.62384 1.30111 5.66949 1.38889C5.73893 1.5 5.77501 1.69439 5.77501 1.88883V3.48463C5.77501 3.60048 5.6811 3.69439 5.56525 3.69439H5.53602C5.43632 3.69439 5.3555 3.61356 5.3555 3.51386V3.34552C5.3555 3.33879 5.35004 3.33333 5.34331 3.33333C5.33886 3.33333 5.33478 3.33576 5.33258 3.33961C5.30526 3.38734 5.26559 3.43588 5.2118 3.50273C5.19838 3.5194 5.18366 3.53507 5.1669 3.54837C5.14008 3.56963 5.10964 3.59089 5.07574 3.61215C4.98033 3.67197 4.87323 3.71145 4.76214 3.72988C4.69023 3.74181 4.6109 3.75 4.52501 3.75ZM4.58889 3.38894C4.61474 3.38894 4.63991 3.38827 4.66442 3.38683C4.90747 3.37252 5.15348 3.24319 5.26666 3.02762C5.32777 2.9165 5.3555 2.83339 5.3555 2.6945V2.43972C5.3555 2.38087 5.32188 2.34753 5.26938 2.3741C5.25581 2.38096 5.23095 2.3885 5.21582 2.39005C5.18771 2.39292 5.15734 2.40019 5.12496 2.40642C5.06497 2.41795 5.00405 2.4282 4.94405 2.43969C4.9329 2.44182 4.9218 2.44382 4.91077 2.44587C4.84195 2.45861 4.76349 2.47206 4.6935 2.47206C4.64573 2.47206 4.6071 2.47797 4.56092 2.49022C4.47879 2.51201 4.40101 2.53388 4.32495 2.55561C4.23328 2.58339 4.15827 2.63894 4.09993 2.6945C4.0416 2.75005 4.01394 2.83323 4.01394 2.94434C4.01394 3.20028 4.28535 3.37098 4.54077 3.3874C4.55654 3.38841 4.57259 3.38894 4.58889 3.38894ZM6.95828 2.05539V3.4847C6.95828 3.60051 6.8644 3.69439 6.74859 3.69439C6.63278 3.69439 6.5389 3.60051 6.5389 3.4847V1.17499C6.5389 1.06301 6.62968 0.972222 6.74167 0.972222C6.85366 0.972222 6.94444 1.06301 6.94444 1.17499V1.3669C6.94444 1.37904 6.95429 1.38889 6.96643 1.38889C6.97502 1.38889 6.9828 1.38388 6.98652 1.37614C7.05043 1.24318 7.14573 1.13627 7.27227 1.0555C7.40283 0.972168 7.56937 0.944282 7.77493 0.944282C7.78488 0.944282 7.79476 0.944361 7.80457 0.944525C8.12093 0.949805 8.4495 1.10217 8.58331 1.38889C8.66108 1.52778 8.69995 1.72211 8.69995 1.97211V3.4847C8.69995 3.60051 8.60607 3.69439 8.49026 3.69439C8.37445 3.69439 8.28057 3.60051 8.28057 3.4847V2.00005C8.28057 1.77783 8.22499 1.61095 8.11388 1.49984C8.00277 1.36095 7.85002 1.30561 7.65557 1.30561C7.52224 1.30561 7.40278 1.33333 7.29723 1.38889C7.19167 1.44444 7.11108 1.52762 7.04997 1.63873C6.98886 1.74984 6.95828 1.88873 6.95828 2.05539ZM10.5722 3.75C10.3167 3.75 10.0973 3.69428 9.91116 3.58317C9.72783 3.44428 9.58608 3.27767 9.48608 3.08323C9.38608 2.861 9.33607 2.61095 9.33607 2.33317C9.33607 2.05539 9.38893 1.83328 9.48893 1.61106C9.59171 1.38883 9.7361 1.22222 9.91943 1.11111C10.1028 1 10.3195 0.944282 10.5667 0.944282C10.5793 0.944282 10.5918 0.944403 10.6043 0.944645C10.9294 0.950978 11.2469 1.08854 11.461 1.33328C11.5089 1.3998 11.5479 1.4663 11.578 1.53585C11.6308 1.6581 11.5261 1.77762 11.3929 1.77762C11.2937 1.77762 11.2088 1.70938 11.1571 1.62473C11.126 1.57355 11.0864 1.52238 11.0392 1.47117C11.0226 1.45319 11.0042 1.43685 10.9839 1.42325C10.8771 1.35186 10.742 1.30561 10.5722 1.30561C10.4083 1.30561 10.2666 1.36117 10.1416 1.4445C10.0222 1.52783 9.92493 1.63889 9.85826 1.80556C9.78882 1.94444 9.75559 2.11095 9.75559 2.33317C9.75559 2.52762 9.78888 2.72206 9.85555 2.88873C9.92222 3.02762 10.0167 3.16672 10.1389 3.25005C10.2639 3.33339 10.4083 3.361 10.5722 3.361C10.6267 3.361 10.6791 3.36099 10.729 3.3539C10.8274 3.33993 10.9208 3.29497 11.003 3.23927C11.0262 3.22356 11.0481 3.20661 11.0685 3.18928C11.086 3.17444 11.1014 3.15729 11.1144 3.13836C11.1339 3.10993 11.1514 3.08114 11.1669 3.05089C11.2128 2.96097 11.2968 2.88873 11.3978 2.88873C11.5284 2.88873 11.6311 3.00564 11.5819 3.12662C11.5531 3.19769 11.5156 3.26553 11.4695 3.33333C11.3778 3.47222 11.2555 3.55545 11.1027 3.63878C10.9499 3.72211 10.775 3.75 10.5722 3.75ZM13.3999 3.75C13.1388 3.75 12.9111 3.69428 12.7222 3.58317C12.5305 3.47206 12.386 3.30545 12.2833 3.08323C12.1805 2.88878 12.1305 2.63889 12.1305 2.36111C12.1305 2.08333 12.1805 1.83328 12.2833 1.61106C12.386 1.38883 12.5277 1.22222 12.711 1.11111C12.8972 1 13.1111 0.944282 13.3583 0.944282C13.5 0.944282 13.6416 0.944336 13.7805 0.999892C13.9166 1.05545 14.0444 1.13873 14.1583 1.22206C14.2721 1.33317 14.3612 1.47206 14.4306 1.63873C14.4973 1.83317 14.5306 2.02772 14.5306 2.3055C14.5306 2.39749 14.456 2.47206 14.364 2.47206H12.6082C12.5085 2.47206 12.4277 2.39123 12.4277 2.29153C12.4277 2.19183 12.5085 2.111 12.6082 2.111H13.6737C13.9122 2.111 14.126 1.90327 14.0111 1.69434C13.8919 1.46738 13.6466 1.31295 13.3903 1.30603C13.3798 1.30575 13.3691 1.30561 13.3583 1.30561C13.1916 1.30561 13.0472 1.36117 12.9249 1.4445C12.8055 1.52783 12.7111 1.61106 12.6472 1.74995C12.5805 1.88883 12.55 2.02772 12.55 2.16661V2.41672C12.55 2.61117 12.5833 2.80545 12.6556 2.94434C12.7948 3.21216 13.0981 3.361 13.3999 3.361C13.511 3.361 13.6111 3.36111 13.7 3.33333C13.7785 3.3088 13.8484 3.26258 13.9096 3.21384C13.9255 3.20113 13.9396 3.18626 13.9522 3.17015C13.9654 3.15316 13.9779 3.13707 13.9898 3.12104C14.0569 3.03078 14.1687 2.96774 14.2772 2.99748C14.3927 3.02915 14.4615 3.15287 14.4016 3.25656C14.3705 3.31048 14.3342 3.35924 14.2927 3.39839C14.2794 3.41094 14.2662 3.42353 14.2535 3.43673C14.1568 3.53785 14.0382 3.61457 13.9 3.66672C13.7528 3.72228 13.586 3.75 13.3999 3.75ZM15.3764 0.0556098C15.4922 0.0556098 15.5861 0.149491 15.5861 0.265299V3.4847C15.5861 3.60051 15.4922 3.69439 15.3764 3.69439C15.2606 3.69439 15.1667 3.60051 15.1667 3.4847V0.2653C15.1667 0.149491 15.2606 0.0556098 15.3764 0.0556098Z" fill="black"/>
</svg>
