<svg width="24" height="24" viewBox="0 0 24 24" fill="none" xmlns="http://www.w3.org/2000/svg">
<path d="M10.3751 8.01385C10.2463 7.6656 9.75371 7.66559 9.62484 8.01384L9.48415 8.39405C8.80774 10.222 8.46953 11.136 7.80278 11.8028C7.13603 12.4695 6.22204 12.8077 4.39405 13.4842L4.0139 13.6249C3.66564 13.7537 3.66564 14.2463 4.0139 14.3751L4.39405 14.5158C6.22204 15.1923 7.13603 15.5305 7.80278 16.1972C8.46953 16.864 8.80774 17.778 9.48415 19.6059L9.62484 19.9861C9.7537 20.3344 10.2463 20.3344 10.3751 19.9861L10.5158 19.6059C11.1923 17.778 11.5305 16.864 12.1972 16.1972C12.864 15.5305 13.778 15.1923 15.6059 14.5158L15.9861 14.3751C16.3343 14.2463 16.3343 13.7537 15.9861 13.6249L15.6059 13.4842C13.778 12.8077 12.864 12.4695 12.1972 11.8028C11.5305 11.136 11.1923 10.222 10.5158 8.39405L10.3751 8.01385Z" fill="url(#paint0_linear_10_9137)"/>
<path d="M18.2211 3.59745C18.1451 3.39221 17.8549 3.39221 17.7789 3.59745C17.489 4.38087 17.3441 4.77259 17.0583 5.05833C16.7726 5.34408 16.3809 5.48903 15.5975 5.77892C15.3923 5.85486 15.3923 6.14514 15.5975 6.22108C16.3809 6.51097 16.7726 6.65592 17.0583 6.94167C17.3441 7.22741 17.489 7.61913 17.7789 8.40255C17.8549 8.60779 18.1451 8.60779 18.2211 8.40255C18.511 7.61913 18.6559 7.22741 18.9417 6.94166C19.2274 6.65592 19.6191 6.51097 20.4025 6.22108C20.6077 6.14514 20.6077 5.85486 20.4025 5.77892C19.6191 5.48903 19.2274 5.34408 18.9417 5.05833C18.6559 4.77259 18.511 4.38087 18.2211 3.59745Z" fill="url(#paint1_linear_10_9137)"/>
<defs>
<linearGradient id="paint0_linear_10_9137" x1="10" y1="7" x2="10" y2="21" gradientUnits="userSpaceOnUse">
<stop stop-color="#6180FA"/>
<stop offset="1" stop-color="#3960F9"/>
</linearGradient>
<linearGradient id="paint1_linear_10_9137" x1="18" y1="3" x2="18" y2="9" gradientUnits="userSpaceOnUse">
<stop stop-color="#6180FA"/>
<stop offset="1" stop-color="#3960F9"/>
</linearGradient>
</defs>
</svg>

