<svg width="24" height="24" viewBox="0 0 24 24" fill="none" xmlns="http://www.w3.org/2000/svg">
<path d="M22 7.28336C22 9.92493 19.7611 12.0667 17 12.0667C16.6753 12.0671 16.3516 12.0371 16.0327 11.9772C15.8031 11.9341 15.6883 11.9126 15.6082 11.9248C15.5281 11.937 15.4145 11.9974 15.1874 12.1182C14.545 12.4598 13.7959 12.5805 13.0755 12.4465C13.3493 12.1097 13.5363 11.7056 13.6188 11.2724C13.6688 11.0074 13.545 10.75 13.3594 10.5616C12.5166 9.70577 12 8.55254 12 7.28336C12 4.64178 14.2388 2.5 17 2.5C19.7611 2.5 22 4.64178 22 7.28336Z" stroke="#3960F9" stroke-width="1.8" stroke-linejoin="round"/>
<path d="M15.4922 7.5H15.5003M18.4922 7.5H18.5003" stroke="#3960F9" stroke-width="1.8" stroke-linecap="round"/>
<path d="M7.50189 21.501H4.71817C4.39488 21.501 4.07021 21.4555 3.77327 21.3279C2.80666 20.9126 2.31624 20.3642 2.08769 20.0211C1.95764 19.826 1.97617 19.5773 2.11726 19.3899C3.23716 17.9024 5.83846 17.004 7.50665 17.0039C9.17484 17.004 11.7714 17.9024 12.8913 19.3899C13.0324 19.5773 13.0509 19.826 12.9209 20.0211C12.6923 20.3642 12.2019 20.9126 11.2353 21.3279C10.9383 21.4555 10.6137 21.501 10.2904 21.501H7.50189Z" stroke="#3960F9" stroke-width="1.8" stroke-linecap="round" stroke-linejoin="round"/>
<path d="M10.288 11.7883C10.288 13.3196 9.04385 14.561 7.5092 14.561C5.97455 14.561 4.73047 13.3196 4.73047 11.7883C4.73047 10.257 5.97455 9.01562 7.5092 9.01562C9.04385 9.01562 10.288 10.257 10.288 11.7883Z" stroke="#3960F9" stroke-width="1.8" stroke-linecap="round" stroke-linejoin="round"/>
</svg>


