<svg width="27" height="27" viewBox="0 0 27 27" fill="none" xmlns="http://www.w3.org/2000/svg">
<path d="M12.3001 21.6416C14.0999 21.8308 15.8444 21.8344 17.4782 21.6765C19.5189 21.4792 20.5393 21.3805 21.5741 20.3043C22.6088 19.228 22.7502 17.8827 23.0331 15.1917L23.2345 13.2752C23.5173 10.5843 23.6587 9.23884 22.8703 7.97099C22.082 6.70314 21.1044 6.39451 19.1493 5.77726C17.584 5.28309 15.8768 4.9239 14.0771 4.73474C12.2773 4.54557 10.5327 4.54196 8.89889 4.6999C6.85819 4.89718 5.83784 4.99582 4.80307 6.07204C3.7683 7.14827 3.62689 8.49372 3.34406 11.1847L3.14263 13.1011C2.8598 15.7921 2.71839 17.1375 3.50678 18.4053C4.29519 19.6732 5.27273 19.9819 7.22782 20.5991C8.79307 21.0932 10.5003 21.4524 12.3001 21.6416Z" fill="url(#paint0_linear_10_9090)"/>
<path d="M17.0967 13.9143C16.8858 14.5012 16.055 14.8514 14.3935 15.5519C12.5863 16.3136 11.6827 16.6945 11.01 16.4405C10.7821 16.3544 10.5777 16.2237 10.4119 16.0582C9.92228 15.5694 10.0167 14.6714 10.2054 12.8754C10.3942 11.0793 10.4886 10.1813 11.0691 9.80499C11.2657 9.67753 11.4929 9.59223 11.7336 9.55545C12.4445 9.44683 13.2491 10.0072 14.8585 11.1281C16.338 12.1587 17.0778 12.6739 17.1621 13.2919C17.1908 13.5023 17.1685 13.7145 17.0967 13.9143Z" fill="#F5ECD9"/>
<defs>
<linearGradient id="paint0_linear_10_9090" x1="14.0771" y1="4.73474" x2="12.3001" y2="21.6416" gradientUnits="userSpaceOnUse">
<stop stop-color="#FFB21E"/>
<stop offset="1" stop-color="#FAA706"/>
</linearGradient>
</defs>
</svg>


